<?xml version="1.0" standalone="no"?>
<!DOCTYPE svg PUBLIC "-//W3C//DTD SVG 1.1//EN" "http://www.w3.org/Graphics/SVG/1.1/DTD/svg11.dtd" >
<!--
2013-9-30: Created.
-->
<svg>
<metadata>
Created by iconfont
</metadata>
<defs>

<font id="iconfont" horiz-adv-x="1024" >
  <font-face
    font-family="iconfont"
    font-weight="500"
    font-stretch="normal"
    units-per-em="1024"
    ascent="896"
    descent="-128"
  />
    <missing-glyph />
    
    <glyph glyph-name="x" unicode="x" horiz-adv-x="1001"
d="M281 543q-27 -1 -53 -1h-83q-18 0 -36.5 -6t-32.5 -18.5t-23 -32t-9 -45.5v-76h912v41q0 16 -0.5 30t-0.5 18q0 13 -5 29t-17 29.5t-31.5 22.5t-49.5 9h-133v-97h-438v97zM955 310v-52q0 -23 0.5 -52t0.5 -58t-10.5 -47.5t-26 -30t-33 -16t-31.5 -4.5q-14 -1 -29.5 -0.5
t-29.5 0.5h-32l-45 128h-439l-44 -128h-29h-34q-20 0 -45 1q-25 0 -41 9.5t-25.5 23t-13.5 29.5t-4 30v167h911zM163 247q-12 0 -21 -8.5t-9 -21.5t9 -21.5t21 -8.5q13 0 22 8.5t9 21.5t-9 21.5t-22 8.5zM316 123q-8 -26 -14 -48q-5 -19 -10.5 -37t-7.5 -25t-3 -15t1 -14.5
t9.5 -10.5t21.5 -4h37h67h81h80h64h36q23 0 34 12t2 38q-5 13 -9.5 30.5t-9.5 34.5q-5 19 -11 39h-368zM336 498v228q0 11 2.5 23t10 21.5t20.5 15.5t34 6h188q31 0 51.5 -14.5t20.5 -52.5v-227h-327z" />
    

    
    <glyph glyph-name="daipingjia" unicode="&#58912;" d="M816.913 114.332v0c18.131 0 32.969-14.835 32.969-32.969v-97.105h65.635c17.967 0 32.667-14.699 32.667-32.667v0c0-17.967-14.699-32.667-32.667-32.667h-88.112c-2.426 0-4.791 0.27-7.069 0.78-1.125-0.117-2.266-0.178-3.42-0.178v0c-18.131 0-32.969 14.835-32.969 32.969v128.873c0 18.131 14.835 32.969 32.969 32.969v0zM263.836 793.844c-34.411-75.386-66.703-150.879-72.74-235.61-11.79-165.537 73.206-281.904 234.281-319.68 9.691-2.266 21.157-23.363 21.329-35.83 1.617-119.147 0.871-238.321 1.091-357.484 0.029-15.45 1.685-30.886 2.589-46.332h235.524c-4.363 3.719-8.589 7.623-12.676 11.708-19.954 19.957-35.605 43.218-46.916 69.078-11.905 27.221-17.566 56.143-17.566 85.841 0 7.717 0.397 15.377 1.194 22.96l-35.598-36.876c-4.404-4.571-7.248-10.653-15.597-23.231-3.761 16.724-6.432 23.15-6.452 29.586-0.284 82.777 0.326 165.551-0.512 248.326-0.22 21.817 5.506 31.482 29.405 34.833 115.216 16.19 213.841 119.187 226.094 238.535 11.626 113.162-17.166 217.842-77.071 314.176h-23.321c-30.612-51.989-61.223-103.978-96.876-164.524-35.277 59.567-66.369 112.043-97.444 164.524h-23.326c-31.425-51.636-62.857-103.276-99.987-164.301-33.824 58.902-64.078 111.601-94.334 164.301l-31.088-0.001zM797.057 181.985c43.594 44.958 87.228 89.851 130.993 134.639 9.885 10.123 25.291 14.836 38.13 22.057 4.956-14.735 13.81-29.364 14.202-44.222 1.557-57.843 0.775-115.747 0.692-173.632-19.696 19.402-42.543 34.653-67.884 45.737-26.983 11.807-55.573 17.562-85.033 17.562-10.485 0-20.851-0.704-31.101-2.138v0zM263.836-201.094c-9.251 3.931-18.259 8.623-27.78 11.703-130.054 41.986-215.502 151.9-221.012 288.151-2.665 65.806-2.306 131.788-1.215 197.659 0.233 13.887 9.692 27.613 14.906 41.414 12.921-6.464 28.674-10.111 38.327-19.83 112.075-112.682 223.635-225.907 333.996-340.252 10.998-11.398 17.973-30.948 18.761-47.109 2.143-43.798-0.055-87.807-0.53-131.733-51.824 0.001-103.641 0.001-155.454 0.001v0zM827.751 144.48c-98.828 0-178.944-80.116-178.944-178.944s80.115-178.944 178.944-178.944c98.827 0 178.943 80.115 178.943 178.944 0 98.827-80.115 178.944-178.943 178.944z"  horiz-adv-x="1024" />

    
    <glyph glyph-name="daishouhuo" unicode="&#58925;" d="M764.033665 244.332143l55.95029 0c61.799508 0 111.903649 50.105165 111.903649 111.902626l0 83.768869c4.212952 33.155121-6.312776 67.816548-31.773657 93.278453l-98.927103 98.898451c-40.84322 40.84322-105.125269 43.001373-149.055804 7.512091l0-283.457864C652.131039 294.436284 702.235181 244.332143 764.033665 244.332143zM708.081329 606.280662c18.577101 4.835122 38.98592 0.901533 53.547567-13.660114l98.898451-98.912777c14.562671-14.547321 18.523889-34.969443 13.687744-53.547567l1.721201 0 0-83.927481c0-30.898731-25.051559-55.951313-55.952336-55.951313l-55.95029 0c-30.898731 0-55.952336 25.052582-55.952336 55.951313L708.081329 606.280662zM176.544367 244.332143l307.732733 0c61.797461 0 111.902626 50.105165 111.902626 111.902626L596.179726 635.991334c0 61.797461-50.105165 111.902626-111.902626 111.902626L176.544367 747.89396c-61.797461 0-111.902626-50.104141-111.902626-111.902626l0-279.757588C64.641741 294.436284 114.746906 244.332143 176.544367 244.332143zM120.593054 635.991334c0 30.898731 25.051559 55.951313 55.951313 55.951313l307.732733 0c30.898731 0 55.95029-25.051559 55.95029-55.951313l0-279.757588c0-30.898731-25.051559-55.951313-55.95029-55.951313L176.544367 300.282433c-30.898731 0-55.951313 25.052582-55.951313 55.951313L120.593054 635.991334zM875.935268 216.355975 148.568199 216.355975c-46.361911 0-83.926458-37.57785-83.926458-83.939761l0-83.927481c0-46.335305 37.564547-83.927481 83.926458-83.927481l30.777981 0c12.961196-63.834864 69.399603-111.902626 137.076982-111.902626s124.115785 48.067762 137.076982 111.902626l117.506251 0c12.96222-63.834864 69.399603-111.902626 137.075959-111.902626 67.677379 0 124.115785 48.067762 137.078005 111.902626l30.775934 0c46.361911 0 83.927481 37.591153 83.927481 83.927481l0 83.927481C959.862749 178.778124 922.297179 216.355975 875.935268 216.355975zM316.422138-91.390062c-46.362934 0-83.927481 37.592177-83.927481 83.927481 0 46.361911 37.564547 83.927481 83.927481 83.927481 46.361911 0 83.927481-37.565571 83.927481-83.927481C400.349619-53.796862 362.784048-91.390062 316.422138-91.390062zM708.081329-91.390062c-46.361911 0-83.927481 37.592177-83.927481 83.927481 0 46.361911 37.565571 83.927481 83.927481 83.927481 46.363957 0 83.927481-37.565571 83.927481-83.927481C792.00881-53.796862 754.445286-91.390062 708.081329-91.390062zM903.910413 48.488733c0-15.436574-12.512988-27.976168-27.975145-27.976168l-30.774911 0c-12.958126 63.851237-69.39858 111.902626-137.079028 111.902626-67.679425 0-124.118855-48.051389-137.076982-111.902626L453.501166 20.512564c-12.958126 63.851237-69.39858 111.902626-137.079028 111.902626s-124.119879-48.051389-137.079028-111.902626l-30.775934 0c-15.462157 0-27.975145 12.539594-27.975145 27.976168l0 83.927481c0 15.462157 12.512988 27.989471 27.975145 27.989471l727.367069 0c15.462157 0 27.975145-12.526291 27.975145-27.989471L903.909389 48.488733z"  horiz-adv-x="1024" />

    
    <glyph glyph-name="xinxiaoxi" unicode="&#58897;" d="M1105.398076 430.605655c-28.392411 242.30657-298.274455 411.088818-602.884024 377.02409C197.950724 773.565017-25.951645 549.539337 2.425353 307.263596c15.013142-128.104956 97.570012-235.632349 217.027767-303.515182 5.872697-53.6558-13.872514-122.062705-106.787526-192.118899-37.964445-28.608206 153.784519-65.524506 332.709116 119.303616 51.389956-6.273459 105.076583-6.812946 159.934667-0.678212C909.888119-35.680353 1133.790487 188.314499 1105.398076 430.605655zM283.806169 292.882423c-42.60403 0-77.131175 34.527145-77.131175 77.131175s34.527145 77.131175 77.131175 77.131175c42.60403 0 77.131175-34.527145 77.131175-77.131175S326.410199 292.882423 283.806169 292.882423zM557.695828 292.882423c-42.60403 0-77.131175 34.527145-77.131175 77.131175s34.527145 77.131175 77.131175 77.131175c42.60403 0 77.131175-34.527145 77.131175-77.131175S600.299858 292.882423 557.695828 292.882423zM831.570073 292.882423c-42.60403 0-77.131175 34.527145-77.131175 77.131175s34.527145 77.131175 77.131175 77.131175c42.60403 0 77.131175-34.527145 77.131175-77.131175S874.174103 292.882423 831.570073 292.882423z"  horiz-adv-x="1108" />

    
    <glyph glyph-name="shangjia" unicode="&#58970;" d="M797.076222 343.49256c17.684778-15.35164 39.597857-25.956162 63.551408-30.034037l0-389.95027c0-17.613146-14.164604-31.812543-31.739888-31.812543L193.590602-108.30429c-17.575284 0-31.850405 14.199397-31.850405 31.812543L161.740196 313.311167c24.065092 3.744277 45.902446 13.866822 63.663972 28.7723l0-207.52752 571.671031 0L797.075199 343.49256zM847.612199 643.232249c4.559852 0 8.899694-0.963954 13.015432-2.484587l0 35.780925c0 17.575284-14.164604 31.775704-31.739888 31.775704L193.590602 708.30429c-17.575284 0-31.850405-14.20042-31.850405-31.775704l0-36.1882c4.561899 1.74269 9.530051 2.891863 14.570857 2.891863L847.612199 643.232249zM847.612199 605.041438l-50.537 0L225.404168 605.041438l-49.093115 0L48.800961 468.111812c0-51.129494 41.48995-92.621491 92.584652-92.621491 10.640338 0 20.763906 1.854231 30.329772 5.117554 0.296759 0.185218 0.74292 0.333598 1.039679 0.481977 3.00238 1.039679 5.858428 2.188852 8.56405 3.521197 0.333598 0.149403 0.779759 0.37146 1.149173 0.593518 2.892887 1.445932 5.747911 2.966565 8.455579 4.671393 0.109494 0.074701 0.296759 0.187265 0.36839 0.25992 11.791557 7.566326 21.727861 17.723663 29.144784 29.587875 0 0.074701 0.073678 0.187265 0.073678 0.296759 1.778506 2.89391 3.41068 6.007831 4.89345 9.15859l0 0.037862c5.562692 11.791557 8.676613 24.991184 8.676613 38.894845 0-51.129494 41.526789-92.621491 92.621491-92.621491 51.130518 0 92.622514 41.491996 92.622514 92.621491 0-51.129494 41.48995-92.621491 92.694145-92.621491 51.130518 0 92.622514 41.491996 92.622514 92.621491 0-51.129494 41.415248-92.621491 92.694145-92.621491 51.02 0 92.546789 41.491996 92.546789 92.621491 0-16.35141 4.299933-31.702026 11.678994-45.086871 0.408299-0.593518 0.74292-1.186012 1.149173-1.779529 1.409093-2.298346 2.819209-4.596691 4.41352-6.821359 0.408299-0.593518 1.001817-1.373277 1.595334-2.15099 1.557472-1.964748 3.188622-4.078899 4.968152-5.970992 0.518816-0.630357 1.001817-1.149173 1.482771-1.741667 2.152013-2.336208 4.485151-4.450359 6.89606-6.489808 0.073678-0.109494 0.149403-0.258896 0.295735-0.296759 8.157797-6.970762 17.464767-12.45773 27.66099-16.312524 0.074701 0 0.25992-0.037862 0.333598-0.148379 3.41068-1.223874 6.711865-2.300392 10.270924-3.115967l0 0c7.080256-1.74269 14.385639-2.707668 21.838378-2.707668 51.205219 0 92.732008 41.491996 92.732008 92.621491L847.612199 605.041438z"  horiz-adv-x="1024" />

    
    <glyph glyph-name="wodexiaoxi" unicode="&#58891;" d="M118.153846-93.846154 118.153846 508.738462l461.193846-387.150769C594.313846 109.378462 612.036923 103.076923 630.153846 103.076923s35.84 6.301538 50.806154 18.510769L1142.153846 508.738462 1142.153846-93.846154 118.153846-93.846154zM1142.153846 693.846154l0-31.113846-512-429.292308L118.153846 662.732308 118.153846 693.846154 1142.153846 693.846154zM78.769231 812C35.446154 812 0 776.553846 0 733.230769l0-866.461538c0-43.323077 35.446154-78.769231 78.769231-78.769231l1102.769231 0c43.323077 0 78.769231 35.446154 78.769231 78.769231L1260.307692 733.230769c0 43.323077-35.446154 78.769231-78.769231 78.769231L78.769231 812z"  horiz-adv-x="1261" />

    
    <glyph glyph-name="fuwufanwei" unicode="&#58974;" d="M801.536 782.32448c0 0 120.09472-116.93056 120.09472-178.87232l-1.26976-648.46848c0 0-8.83712-55.62368-78.35648-77.1072L194.78528-120.864c0 0-58.14272 11.37664-82.15552 74.57792L112.62976 600.92288c0 0 25.28256 108.70784 122.61376 179.49696 0 0-171.91936 31.60064-203.52-163.072l0-663.63392c0 0-3.7888-151.68512 163.06176-155.48416l672.49152 0c0 0 128.9216 6.31808 135.24992 154.2144L1002.52672 611.02976C1002.52672 611.02976 999.99744 789.2672 801.536 782.32448zM769.76128 533.28768c0 136.48896-112.83456 247.13216-251.99616 247.13216-139.17184 0-251.99616-110.6432-251.99616-247.13216 0-136.47872 251.99616-510.0544 251.99616-510.0544S769.76128 396.80896 769.76128 533.28768zM385.66912 528.23936c0 70.85056 58.5728 128.29696 130.82624 128.29696s130.83648-57.4464 130.83648-128.29696c0-70.8608-58.58304-128.29696-130.83648-128.29696S385.66912 457.37856 385.66912 528.23936z"  horiz-adv-x="1024" />

    
    <glyph glyph-name="shouye" unicode="&#58880;" d="M1237.54203 281.766006c17.689436-16.766509 26.918707-35.225052 27.687813-55.375627 0.769106-20.150575-5.845205-36.917085-20.150575-50.453349-15.997403-14.30537-34.455946-21.073502-55.375627-20.150575-21.073502 0.769106-37.840012 6.768132-50.453349 17.689436-4.153172 3.384066-17.074152 15.074476-38.455296 35.225052-21.381145 20.150575-47.069283 44.300501-76.910593 72.449778-29.84131 28.149277-61.682295 58.452051-95.830599 90.7545-33.994482 32.302449-66.14311 62.759044-96.445883 91.369784-30.302774 28.610741-56.298554 53.375951-78.141162 74.295633-21.842608 21.073502-35.686515 33.994482-41.53172 39.070581-26.918707 24.303747-53.375951 36.147979-79.371732 35.225052-25.99578-0.769106-51.683918-12.613337-76.910593-35.225052C547.34637 569.103981 531.656609 554.644789 508.583431 533.263644c-23.073178-21.381145-49.838064-46.453998-79.987017-74.910917-30.302774-28.610741-62.143759-58.452051-95.830599-89.52393-33.533018-31.071879-64.758719-59.990262-93.215638-86.90897-28.610741-26.918707-53.068309-49.838064-73.680348-68.604249-20.612039-18.920006-32.917734-29.995131-37.224727-33.379197-12.613337-10.152198-29.379846-15.53594-50.453349-16.305046-21.073502-0.769106-39.070581 5.537563-54.145057 18.920006-16.766509 15.074476-24.765211 33.379197-23.996105 54.760342 0.769106 21.381145 7.998702 38.455296 21.381145 51.068634 5.076099 5.076099 20.612039 19.689112 46.607819 44.14668 25.99578 24.303747 57.06766 53.375951 93.215638 86.90897 36.147979 33.533018 74.910917 69.680997 116.596459 108.443936 41.53172 38.609118 80.294659 74.757096 115.981174 108.443936 35.686515 33.533018 66.296931 62.29758 91.985069 86.293685 25.688138 23.996105 40.608793 37.993833 44.761965 42.147005 31.994807 31.071879 66.296931 46.76164 103.367837 47.223104 36.917085 0.461464 68.450428-11.998052 94.446208-37.224727 5.076099-4.153172 15.53594-13.997728 31.533343-29.687489 15.997403-15.53594 35.532694-34.455946 58.605872-56.760017 23.073178-22.304072 48.915137-47.223104 77.525878-74.910917 28.610741-27.687813 57.529123-55.683269 86.90897-83.832546C1012.347814 501.268838 1041.112376 473.273382 1069.261653 445.585569c28.149277-27.687813 53.991236-52.760667 77.525878-74.910917C1170.322172 348.370579 1190.011284 329.296752 1206.008687 313.299349L1237.54203 281.766006zM555.806535 464.505574c21.073502 19.381469 46.146356 29.533668 75.680023 30.918058 29.379846 1.230569 55.83709-9.07545 79.371732-30.918058 2.461139-2.461139 10.152198-9.690735 22.611714-21.381145l47.838389-44.14668c18.458542-17.689436 39.224402-37.378548 62.451401-59.221156 23.073178-21.842608 46.76164-43.685217 71.219209-65.527825 56.298554-52.145382 119.36524-110.443611 189.046237-175.20233l0-239.345765c0-18.458542-6.921953-34.917409-20.76586-49.068958-13.843907-14.30537-32.610091-21.842608-56.144733-22.611714L788.999453-212l0 195.352906c0 27.687813-13.074801 41.53172-39.070581 41.53172L509.198716 24.884626c-14.30537 0-24.149926-4.153172-29.533668-12.613337-5.537563-8.460165-8.152523-17.997079-8.152523-28.918383 0-5.076099-0.153821-17.843258-0.615285-38.455296-0.461464-20.612039-0.615285-42.608468-0.615285-66.14311l0-90.7545-230.577957 0c-24.303747 0-43.685217 5.383741-57.990587 16.305046-14.30537 10.921304-21.381145 26.457244-21.381145 46.607819l0 250.728533c68.911891 63.066686 131.517114 120.134346 187.815668 171.356801C371.374934 294.840807 394.909575 316.375773 418.444217 337.910739c23.534641 21.381145 44.915786 40.916435 64.297256 58.605872C502.122942 414.052226 518.274166 428.972881 531.195146 441.124754 544.269947 453.430449 552.422469 461.121508 555.806535 464.505574L555.806535 464.505574zM555.806535 464.505574"  horiz-adv-x="1266" />

    
    <glyph glyph-name="icon" unicode="&#59042;" d="M6.73796-40.774267c0-34.913161 28.27702-63.190181 63.162552-63.190181l884.330984 0c34.913161 0 63.134923 28.27702 63.134923 63.190181l0 543.222095L6.73796 502.447828 6.73796-40.774267 6.73796-40.774267 6.73796-40.774267zM663.664723 350.850132l104.117312 0c47.15088 0 85.36011-38.235836 85.36011-85.36625l0-12.635785c0-50.547233-40.913828-91.52246-91.455945-91.52246l-60.107983 0 0-113.687272-37.913495 0L663.664723 350.850132 663.664723 350.850132 663.664723 350.850132zM499.425102 350.850132l37.912471 0 0-303.210743-37.912471 0L499.425102 350.850132 499.425102 350.850132 499.425102 350.850132zM234.127853 350.850132l56.842613-227.41036 56.863079 227.41036 37.913495 0-75.812663-303.210743-37.893029 0-75.826989 303.210743L234.127853 350.850132 234.127853 350.850132 234.127853 350.850132zM954.232518 704.552849 69.901535 704.552849c-34.885532 0-63.162552-28.27702-63.162552-63.136969l0-88.440262 1010.629481 0 0 88.440262C1017.367441 676.275829 989.145679 704.552849 954.232518 704.552849L954.232518 704.552849 954.232518 704.552849zM815.254234 249.766922 815.254234 262.40987c0 27.879977-22.633486 50.548256-50.52779 50.548256l-63.149249 0 0-113.712855 63.149249 0C792.620747 199.245272 815.254234 221.831686 815.254234 249.766922L815.254234 249.766922 815.254234 249.766922zM815.254234 249.766922"  horiz-adv-x="1024" />

    
    <glyph glyph-name="icon1" unicode="&#59056;" d="M803.635615 88.987099c-43.75248 0-79.224366-33.685193-79.224366-75.227332 0-41.531905 35.471886-75.234495 79.224366-75.234495 43.745317 0 79.230506 33.70259 79.230506 75.234495C882.866121 55.301905 847.380932 88.987099 803.635615 88.987099L803.635615 88.987099zM803.635615-23.869249c-21.880333 0-39.625486 16.832364-39.625486 37.615713 0 20.781302 17.745153 37.624922 39.625486 37.624922 21.858844 0 39.617299-16.84362 39.617299-37.624922C843.252915-7.036885 825.506738-23.869249 803.635615-23.869249L803.635615-23.869249zM958.868095 54.721691c-3.560082 12.279674-8.743128 23.879873-15.236006 34.709523 7.397481 9.445116 32.876782 44.76146 14.512529 62.22111l-9.420557 9.459442c-15.711843 14.882965-55.832609-8.382924-65.572438-14.405081-11.492752 6.187933-23.899316 11.115152-36.985356 14.476713-2.085498 11.82635-11.231809 53.197596-37.081547 53.197596L798.745235 214.380994c-22.218024 0-34.93772-42.767036-37.773302-53.494355-12.888542-3.416819-25.086351-8.351202-36.449143-14.544251-8.958022 6.300496-47.39545 31.53625-66.157769 13.738909l-9.961886-7.963369c-16.338107-15.510252 10.828626-56.45478 15.789615-63.612807-6.297426-10.642384-11.330046-22.042016-14.791891-34.069957-10.841929-1.64957-57.109696-10.109242-57.109696-35.380812l0-9.824763c0-21.892613 48.523133-34.063817 57.382918-36.107359 3.51915-11.914354 8.591679-23.23826 14.890128-33.790594-5.220908-7.774057-31.330566-48.520063-15.130605-63.902402l9.441023-7.444553c21.305235-20.244067 65.839521 13.005198 65.839521 13.005198l-2.061962 2.086521c11.821233-6.632047 24.592095-11.869329 38.113039-15.473413 2.196015-8.637728 15.006785-54.397934 37.988196-54.397934l10.346649 0c30.15274 0 37.615713 53.419653 37.615713 53.419653l-2.762927 0.077771c13.690814 3.318582 26.618241 8.309246 38.626739 14.70798 9.408277-5.958712 48.855708-29.389354 64.620763-14.432711l10.476609 9.954723c21.017686 19.924795-13.190417 60.781318-14.148231 61.919235 6.501064 10.785647 11.703553 22.388916 15.294334 34.623565 11.754718 2.827395 55.995315 14.891152 55.975872 35.756365l0 9.824763C1014.798942 46.764462 962.161095 54.274506 958.868095 54.721691L958.868095 54.721691zM803.635615-99.097604c-65.651232 0-118.849852 50.505277-118.849852 112.843044 0 62.339814 53.218062 112.861464 118.849852 112.861464 65.623603 0 118.842689-50.52165 118.842689-112.861464C922.478304-48.591303 869.277638-99.097604 803.635615-99.097604L803.635615-99.097604zM140.705114-51.466794c-10.853186 0-19.681248 8.774851-19.681248 19.609617L121.023866 163.673102c-0.033769 18.802228-14.807241 34.108842-33.307593 35.002189-18.588357-0.86981-33.391505-16.260335-33.360805-35.138288l0-201.399963c0-49.5096 40.245609-89.779769 89.73986-89.779769l458.997855 0c0.483001 21.350261 19.023262 50.235125 23.633257 57.090253-3.671623 6.144954-6.983041 12.518105-9.884115 19.085684L140.705114-51.466794 140.705114-51.466794zM108.804567 263.28275c25.889647-13.840216 56.42715-20.959358 90.719164-20.959358 57.480132 0.176009 110.718661 25.490557 147.004075 68.826552 36.110429-42.982954 88.937588-68.116377 146.30925-68.477604 56.914244 0.458441 109.597117 25.702382 145.537677 68.64645 36.281321-43.327808 89.589434-68.532863 147.344836-68.532863 34.963303 0.168846 65.988924 7.54279 92.125187 21.904892 61.927421 33.921577 100.346429 98.953709 100.3188 169.719426 0.099261 20.321838-3.226484 40.721447-9.321296 59.307757l-0.279363 1.428535c-0.417509 2.052752-0.984421 4.01443-1.785669 5.906523L884.671233 699.874293C870.45137 742.368106 829.609173 786.529909 781.834076 786.634286L205.546911 786.634286c-48.4075 0-86.018096-43.914162-99.649558-84.71338L17.631054 498.915375c-0.417509-1.226944-0.873903-3.050476-1.263783-4.909823-6.401804-19.733437-9.630335-40.001039-9.630335-60.33618C6.809591 362.169945 45.93161 296.899382 108.804567 263.28275L108.804567 263.28275zM237.061672 558.05838l513.584078 0c19.531845 0 33.228799-14.231119 33.228799-33.619702 0-19.389606-13.696953-42.565445-33.228799-42.565445L237.061672 481.873234c-19.501146 0-38.693254 19.075451-38.693254 38.465057C198.368418 539.72585 217.560526 558.05838 237.061672 558.05838L237.061672 558.05838zM878.157889 213.588955c0.560772 0.029676 1.128707 0.042979 1.694595 0.042979l-3.390213 0C877.031229 213.631934 877.596094 213.618631 878.157889 213.588955L878.157889 213.588955zM85.993025 198.721339c0.581238 0 1.14815-0.010233 1.723248-0.038886 0.533143 0.028653 1.061169 0.038886 1.601474 0.038886L85.993025 198.721339 85.993025 198.721339zM85.993025 198.721339"  horiz-adv-x="1024" />

    
    <glyph glyph-name="wentiqishouwenti" unicode="&#59021;" d="M988.092 250.714c6.217 1.109 11.827 3.022 16.956 6.257 12.155 7.663 18.319 20.714 18.319 38.788 0 27.256-19.838 56.71-53.066 78.792-22.932 15.24-61.469 33.061-119.292 36.947-3.392 11.169-8.335 22.269-14.75 33.023-5.958 9.79-13.41 20.922-22.038 33.812-30.751 45.937-75.746 113.153-103.74 195.776 3.178-0.169 6.38-0.264 9.603-0.264 25.28 0 42.307 5.307 53.588 16.702 14.636 14.786 14.551 34.626 14.478 52.131-0.006 1.314-0.011 2.641-0.011 3.979 0 1.336 0.006 2.659 0.011 3.969 0.075 17.481 0.159 37.295-14.475 52.077-11.281 11.397-28.31 16.706-53.591 16.706-27.912 0-54.461-6.416-74.754-18.067-19.351-11.11-31.891-26.603-35.707-43.616-36.335-15.804-80.277-35.001-85.848-37.681-27.652-13.361-31.254-35.848-25.937-51.045 7.735-22.107 33.372-34.134 59.641-27.973 16.367 3.835 46.883 22.028 60.659 32.818 15.653-46.815 87.732-159.458 112.449-224.652 24.717-65.194-99.889-153.435-128.602-168.421-41.208-21.507-188.273-7.624-199.294 6.923-7.948 10.492-13.403 94.046 5.747 161.498 0.906 3.193 1.015 6.56 0.317 9.805-0.471 2.191-3.344 14.208-11.63 26.036 7.445 6.095 12.083 13.828 12.083 23.794 0 14.454-5.304 30.819-14.187 43.775-11.015 16.065-26.409 25.277-42.233 25.277h-295.765c-15.826 0-31.218-9.214-42.233-25.277-8.884-12.956-14.187-29.32-14.187-43.775 0-9.472 4.527-22.805 26.093-32.535 2.985-1.346 6.317-2.635 9.962-3.867-14.686-27.962-36.054-79.297-36.054-141.254 0-28.338 17.395-53.031 51.701-73.391 6.753-4.008 14.21-7.871 22.353-11.585-8.304-18.475-12.639-38.586-12.639-59.155 0-79.254 64.099-143.733 142.886-143.733 78.787 0 142.887 64.479 142.887 143.733 0 1.617 0.054 8.928 0 10.544 40.897-2.918 102.776-4.002 145.539-4.002 60.406 0 99.57 5.511 147.694 14.708 7.701-44.754 31.539-62.037 55.206-62.037 10.562 0 18.538 2.643 24.989 6.587 15.296-62.797 71.713-109.533 138.788-109.533 78.789 0 142.886 64.479 142.886 143.733 0 22.255-5.142 44.022-14.802 63.672zM720.085 779.062c19.409 0 24.372-4.021 25.17-4.827 2.874-2.905 2.828-13.812 2.787-23.437-0.006-1.367-0.011-2.748-0.011-4.142 0-1.397 0.006-2.782 0.011-4.152 0.041-9.647 0.087-20.582-2.792-23.491-0.798-0.806-5.758-4.824-25.165-4.824-43.703 0-71.592 19.229-71.592 32.467 0.001 13.213 27.89 32.405 71.592 32.405v0zM268.086 175.731c0-35.044-28.343-63.555-63.181-63.555-34.838 0-63.18 28.51-63.18 63.555 0 9.588 2.13 18.943 6.193 27.459 9.892-3.252 20.838-6.253 32.798-8.987 25.22-5.765 55.006-10.304 87.169-13.412 0.132-1.681 0.201-3.37 0.201-5.060v0zM80.998 346.834c0 59.616 24.472 108.602 35.547 127.714 32.226-5.064 75.062-7.834 121.694-7.834 50.226 0 32.198 3.179 65.909 8.95 6.249 1.069 12.676 2.306 18.98 3.802 5.659-2.63 9.050-9.105 10.734-13.348-17.586-64.322-29.998-139.922-10.734-165.347 19.913-26.286-35.521-43.929-112.642-26.303-81.081 18.533-129.488 45.586-129.488 72.367zM727.723 225.366c-1.962 2.017-7.356 17.368-5.366 37.467 5.366 54.208 55.495 74.588 84.25 81.125 61 13.868 136.434-34.826 136.434-51.408 0-1.914-0.165-3.103-0.305-3.77-1.242-0.366-4.219-0.885-11.092-0.885-3.224 0-6.915 0.099-10.821 0.204-4.778 0.129-10.194 0.275-16.020 0.275-21.337 0-54.234-1.875-93.423-18.084-50.917-21.055-54.267-27.995-64.418-40.202-6.257-7.527-6.455-7.527-9.792-7.527-5.906 0-8.031 1.347-9.447 2.803zM785.253 181.522c0 0.485-0.026 0.962-0.072 1.435 9.463 8.489 24.23 18.528 50.336 29.323 32.128 13.288 58.426 14.992 77.747 14.992 2.083 0 4.083-0.024 6.045-0.057 9.969-13.070 15.427-29.12 15.427-45.694 0-41.457-33.528-75.186-74.742-75.186-41.214 0-74.742 33.729-74.742 75.186v0z"  horiz-adv-x="1024" />

    
    <glyph glyph-name="yijianfankui" unicode="&#58888;" d="M769.430582-61.011306l-518.099928 0c-31.791054 0-57.567113 25.747407-57.567113 57.45455L193.76354 690.054511c0 31.706119 25.77606 57.45455 57.567113 57.45455l143.889131 0 0-59.870576L280.086581 687.638485c-15.854083 0-28.755927-12.817933-28.755927-28.727275l0-633.739669c0-15.854083 12.901845-28.727275 28.755927-28.727275l460.532815 0c15.909341 0 28.811186 12.873192 28.811186 28.727275L769.430582 658.910187c0 15.909341-12.901845 28.727275-28.811186 28.727275L625.514845 687.637462l0 59.870576 143.91676 0c31.79003 0 57.539484-25.747407 57.539484-57.45455l0-693.611268C826.97109-35.263899 801.221636-61.011306 769.430582-61.011306zM395.247414 515.331118l316.618101 0 0-28.727275L395.247414 486.603843 395.247414 515.331118zM395.247414 429.149293l316.618101 0 0-28.727275L395.247414 400.422018 395.247414 429.149293zM395.247414 342.968491l316.618101 0 0-28.727275L395.247414 314.241216 395.247414 342.968491zM395.247414 256.786667l316.618101 0 0-28.727275L395.247414 228.059392 395.247414 256.786667zM711.864492 55.696766 395.247414 55.696766l0 28.727275 316.618101 0L711.865515 55.696766zM395.247414 170.605865l316.618101 0 0-28.727275L395.247414 141.87859 395.247414 170.605865zM308.896744 515.893936l28.782533 0 0-28.727275-28.782533 0L308.896744 515.893936zM308.896744 429.711088l28.782533 0 0-28.726252-28.782533 0L308.896744 429.711088zM308.896744 343.530286l28.782533 0 0-28.672016-28.782533 0L308.896744 343.530286zM308.896744 257.405767l28.782533 0 0-28.727275-28.782533 0L308.896744 257.405767zM337.680301 56.314843l-28.782533 0 0 28.727275 28.782533 0L337.680301 56.314843zM308.896744 171.223942l28.782533 0 0-28.727275-28.782533 0L308.896744 171.223942zM683.080935 657.167496c15.881712 0 28.755927-12.874215 28.755927-28.783557 0-15.85306 0-55.599296 0-55.599296l-402.967748 0c0 0 0 39.745213 0 55.599296 0 15.909341 12.901845 28.783557 28.811186 28.783557l86.35067 0c0 0 0.336668 40.813544 0.336668 87.530542 0 48.459688 37.440727 88.992847 86.012979 88.992847 48.572252 0 87.335091-42.61354 87.335091-89.274256 0-50.313919-0.984421-87.249133-0.984421-87.249133L683.080935 657.167496zM510.380618 747.509061c-15.909341 0-28.782533-12.874215-28.782533-28.726252 0-15.854083 12.873192-28.727275 28.782533-28.727275 15.882736 0 28.755927 12.874215 28.755927 28.727275C539.135522 734.634846 526.26233 747.509061 510.380618 747.509061z"  horiz-adv-x="1024" />

    
    <glyph glyph-name="wodetuijianyouli" unicode="&#58920;" d="M74.049286 792.037023l875.404577 0M74.049286 610.971303l875.404577 0M74.049286 429.804145l875.404577 0M893.46043 437.71626 539.03823 437.71626 539.03823 601.233314l-30.9384 0C544.008661 694.555703 636.113801 876.940109 784.415248 792.138461c109.248057-62.485425 46.458319-139.780708-52.443125-190.803709l161.488307 0c30.126901 0 54.57331-24.446408 54.57331-54.57331l0-54.57331C947.932303 462.061231 923.587332 437.71626 893.46043 437.71626zM737.551179 724.784041c-98.394257 55.790558-169.09611-121.52198-169.09611-121.52198C630.128996 585.91627 817.078084 679.745845 737.551179 724.784041zM130.042719 437.71626c-30.126901 0-54.57331 24.446408-54.57331 54.57331l0 54.57331c0 30.126901 24.446408 54.57331 54.57331 54.57331l148.504322 0c-91.902265 54.979059-152.764692 139.780708-66.745795 190.803709C355.740887 877.447296 442.977032 691.512581 475.538431 601.233314l9.027927 0 0-163.618492L130.042719 437.614823zM284.430409 726.508477c-75.875159-44.733884 103.973313-137.954835 162.90843-120.71048C447.440277 605.797996 378.462859 781.994723 284.430409 726.508477zM484.46492-53.037777 184.616029-53.037777c-30.126901 0-54.57331 24.446408-54.57331 54.57331L130.042719 383.142951l354.422201 0L484.46492-53.037777zM893.46043 383.142951l0-381.708855c0-30.126901-24.446408-54.57331-54.57331-54.57331L539.03823-53.139215 539.03823 383.142951 893.46043 383.142951z"  horiz-adv-x="1155" />

    
    <glyph glyph-name="wodehuodong" unicode="&#58935;" d="M100.706644 894.552058l-14.583725 0c-30.322941 0-54.895014-24.580254-54.895014-54.895014l0-912.759984c0-30.337256 24.574118-54.897059 54.895014-54.897059l14.583725 0c30.31476 0 54.897059 24.559803 54.897059 54.897059L155.603703 839.657044C155.601658 869.971804 131.021404 894.552058 100.706644 894.552058zM805.075404 731.744432c-77.1377 0-146.189009 21.43691-193.474145 51.217895-47.283091 29.70327-116.336446 51.103368-193.474145 51.103368-77.092707 0-146.195145-36.746651-193.429153-66.535816L224.69796 204.791564c47.234008 29.795301 116.336446 66.535816 193.429153 66.535816 77.05794 0 146.162423-21.400098 193.474145-51.082917 47.283091-29.682819 116.336446-51.168812 193.474145-51.168812 77.090662 0 146.160378 39.241693 193.429153 69.096302L998.504557 800.840735C951.233736 771.05975 882.166066 731.744432 805.075404 731.744432zM665.087187 449.381348l-25.242872-104.149597-81.874189 69.472604-107.229542-8.280676 41.037305 99.077708-41.037305 99.034761 107.229542-8.26636 81.874189 69.474649 25.242872-104.157778 91.63553-56.083227L665.087187 449.381348z"  horiz-adv-x="1024" />

    
    <glyph glyph-name="wodexiaoxi1" unicode="&#58926;" d="M106.108 510.955l298.949-205.132c64.127 45.717 139.235 49.572 202.771-2.371 3.856-2.979 7.413-5.942 11.28-8.908l280.539 223.245-328.932 231.856c-46.311 31.47-82.229 36.81-127.651 0.593l-8.611-6.831-0.594 0.593c-3.262-2.077-6.535-4.449-9.502-6.822-13.357-9.204-26.714-18.706-40.080-28.208-39.181-27.9-78.373-55.515-117.554-83.417-53.439-38.005-106.876-76.295-160.612-114.598v0zM61.578 42.791l298.059 228.299-293.898 201.87c-6.239-12.468-9.502-26.418-9.502-40.379v-359.504c0-10.394 1.779-20.784 5.34-30.286v0zM94.235-0.551c15.146-10.985 33.546-16.916 52.548-16.916h719.023c16.025 0 31.469 4.151 45.121 12.171l-307.559 243.138c-9.798 6.821-18.699 14.838-27.902 22.266-46.014 30.273-89.359 41.258-135.678 4.15l-16.916-13.059c-107.173-86.985-219.092-168.027-328.638-251.748v0zM941.211 481.867l-278.464-221.761 284.989-225.332c5.349 11.874 8.315 24.945 8.315 38.302v359.504c0 17.521-5.040 34.734-14.838 49.287v0zM962.588 539.756c30.57-25.529 47.793-67.982 47.793-107.174v-359.504c0-38.599-15.434-75.113-42.457-102.419-27.307-27.019-63.828-42.452-102.119-42.452h-719.023c-38.588 0-75.111 15.434-102.418 42.452-27.021 27.308-42.454 63.82-42.454 102.419v359.503c0 36.819 14.246 75.111 41.564 100.342l0.594 0.593 365.446 259.47c27.012 21.375 58.185 36.81 93.215 37.699 37.104 0.89 70.659-14.246 99.452-36.809l358.023-252.342c2.086-1.185 0.899-0.593 2.384-1.778v0zM310.657 478.299v-20.179h398.992v20.179h-398.992zM310.657 423.376v-20.178h207.219v20.178h-207.219zM310.657 535.010v-20.189h398.992v20.189h-398.992zM263.161 602.101h487.461c8.898 0 16.027-7.129 16.027-16.036v-207.219c0-5.635-2.668-10.391-6.83-13.357l-140.71-111.919c-6.24-4.746-15.149-4.449-20.783 0.89l-15.149 11.875c-0.294 0.297-0.592 0.297-0.889 0.594v0 0 0c-12.468 10.094-24.935 17.52-37.997 22.562-13.058 5.349-26.122 8.019-39.487 8.019-13.060 0.297-26.418-1.779-39.182-6.525-12.468-4.458-24.934-11.588-36.819-21.078-0.287 0-0.287 0-0.593-0.297l-7.118-5.349c-5.646-4.448-13.357-4.15-19.002-0.297l-147.837 101.823c-4.756 2.976-7.13 8.019-7.13 13.059v0 207.22c0 8.908 7.13 16.036 16.037 16.036v0z"  horiz-adv-x="1024" />

    
    <glyph glyph-name="shangpinpingjia" unicode="&#59141;" d="M531.033077-47.569901C281.863496-47.569901 79.150994 155.1426 79.150994 404.312181S281.863496 856.194264 531.033077 856.194264 982.915159 653.481763 982.915159 404.312181 780.202658-47.569901 531.033077-47.569901zM531.033077 822.016588c-230.341161 0-417.704407-187.363246-417.704407-417.704407s187.363246-417.704407 417.704407-417.704407 417.704407 187.363246 417.704407 417.704407S761.374238 822.016588 531.033077 822.016588zM541.777556 185.534126c-11.767763 0-22.716898 4.40012-31.107825 12.484061l-161.678825 156.460078c-26.298391 25.275107-40.82902 58.941141-40.82902 94.858399s14.530629 69.68562 40.931348 94.960727c26.196063 25.172779 60.987709 38.987109 97.92825 38.987109 35.507944 0 66.104127-12.791046 93.425802-38.987109l0.716299-0.818627 1.841911 1.739582c26.707705 25.582093 57.201559 38.066154 93.425802 38.066154 36.940542 0 71.732187-13.81433 97.92825-38.987109l0 0c26.810033-25.582093 40.931348-58.429499 40.931348-95.063056 0-35.917258-14.530629-69.68562-40.82902-94.960727L572.88538 198.018187C564.596782 190.036574 553.545318 185.534126 541.777556 185.534126zM447.123813 549.209154c-28.140302 0-54.438693-10.437494-74.290397-29.470571-19.647047-18.82842-30.391526-43.796542-30.391526-70.29959s10.744479-51.47117 30.391526-70.29959l161.678825-156.562406c3.78615-3.683821 10.949136-3.683821 14.632957 0l161.678825 156.460078c19.647047 18.82842 30.391526 43.796542 30.391526 70.29959 0 27.01469-10.539822 51.266513-30.391526 70.29959l0 0c-19.749375 19.033077-46.150095 29.470571-74.290397 29.470571-27.321675 0-49.526931-9.004897-69.787948-28.549615l-24.558809-29.879884-25.684421 29.163585C495.729789 539.9996 473.626861 549.209154 447.123813 549.209154z"  horiz-adv-x="1024" />

    
    <glyph glyph-name="dingdan" unicode="&#58985;" d="M291.212478 729.512175l441.576067 0c14.427594 0 26.239618 11.806907 26.239618 26.237571L759.028163 869.415528c0 14.429641-11.812023 26.237571-26.239618 26.237571L291.212478 895.653099c-14.435781 0-26.239618-11.80793-26.239618-26.237571l0-113.664759C264.971837 741.318058 276.776697 729.512175 291.212478 729.512175zM860.248496 815.205882l-74.980715 0 0-59.459207c0-28.941146-23.554462-52.478212-52.480258-52.478212L291.219641 703.268464c-28.933983 0-52.480258 23.537066-52.480258 52.478212L238.739383 815.205882l-74.987878 0c-43.282782 0-78.704526-35.413558-78.704526-78.698386L85.046978-48.954713c0-43.282782 35.421744-78.698386 78.704526-78.698386l696.496991 0c43.282782 0 78.704526 35.415604 78.704526 78.698386L938.953022 736.507496C938.953022 779.792325 903.531278 815.205882 860.248496 815.205882zM814.18539 108.96804c0-19.976984-16.340153-36.32123-36.319184-36.32123L247.156076 72.646809c-19.97903 0-36.319184 16.344247-36.319184 36.32123l0 6.054903c0 19.97903 16.340153 36.323277 36.319184 36.323277l530.710131 0c19.97903 0 36.319184-16.344247 36.319184-36.323277L814.18539 108.96804zM814.18539 323.633121c0-19.976984-16.340153-36.32123-36.319184-36.32123L247.156076 287.311891c-19.97903 0-36.319184 16.344247-36.319184 36.32123l0 6.056949c0 19.976984 16.340153 36.32123 36.319184 36.32123l530.710131 0c19.97903 0 36.319184-16.344247 36.319184-36.32123L814.18539 323.633121zM814.18539 538.300248c0-19.97903-16.340153-36.323277-36.319184-36.323277L247.156076 501.976972c-19.97903 0-36.319184 16.344247-36.319184 36.323277l0 6.054903c0 19.976984 16.340153 36.323277 36.319184 36.323277l530.710131 0c19.97903 0 36.319184-16.346293 36.319184-36.323277L814.18539 538.300248z"  horiz-adv-x="1024" />

    
    <glyph glyph-name="ruzhu" unicode="&#59060;" d="M847.510169 667.186902 869.160532 667.186902c21.959654 0 39.279944 17.629581 39.279944 34.949872l0 21.959654-96.18947 47.940089 0-69.899743C812.560298 680.486411 825.550515 667.186902 847.510169 667.186902L847.510169 667.186902zM1070.199617 531.717488c21.959654-8.660145 43.610017-4.330073 52.270162 17.32029l8.660145 12.990218c8.660145 21.959654 4.330073 43.610017-17.32029 52.270162L908.440476 719.766355l0-21.959654c0-21.959654-17.32029-39.279944-39.279944-34.949872L847.510169 662.856829c-21.959654 0-39.279944 17.32029-34.949872 39.279944l0 69.899743-231.658884 117.839833c-4.330073 0-4.330073 4.330073-8.660145 4.330073-8.660145 4.330073-21.959654 0-30.619799-4.330073l-519.918002-275.2689c-21.959654-8.660145-26.289726-34.949872-17.32029-52.270162l8.660145-12.990218c8.660145-21.959654 34.949872-26.289726 52.270162-17.32029l493.628275 261.969392L1070.199617 531.717488 1070.199617 531.717488zM821.220443 177.888699l-235.988956 235.988956c-12.990218 17.32029-8.660145 65.569671 12.990218 87.220034 21.959654 21.959654 69.899743 21.959654 91.859397 4.330073l17.32029-17.629581c0 4.330073 4.330073 4.330073 4.330073 8.660145l26.289726 26.289726c8.660145 8.660145 21.959654 8.660145 30.619799 0l74.229816-74.229816c8.660145-8.660145 8.660145-21.959654 0-30.619799l-26.289726-26.289726-4.330073-4.330073L930.40013 269.748096c8.660145 4.330073 17.32029 8.660145 26.289726 8.660145l0 279.598973L563.581124 754.716227l-371.45837-196.709012 0-629.097689c0-30.619799 26.289726-56.909525 56.909525-56.909525l218.359375 0 0 349.498716 235.988956 0 0-349.498716 192.069648 0c30.619799 0 56.909525 26.289726 56.909525 56.909525-30.619799 8.660145-61.239598 21.959654-87.220034 47.940089C812.560298 25.098995 794.930716 121.288465 821.220443 177.888699L821.220443 177.888699zM812.560298 440.167382 759.980845 492.437544c-4.330073 4.330073-17.32029 4.330073-21.959654 0l-8.660145-8.660145c-4.330073-4.330073-4.330073-17.32029 0-21.959654l52.270162-52.270162c4.330073-4.330073 17.629581-4.330073 21.959654 0L812.560298 418.207728C821.220443 426.867873 821.220443 435.837309 812.560298 440.167382L812.560298 440.167382zM921.739985 239.128297 681.420956 479.447326c-17.629581 17.32029-47.940089 17.32029-65.569671 0-17.629581-17.32029-17.629581-47.940089 0-65.569671l240.319029-240.319029c-30.619799-56.909525-21.959654-131.139341 26.289726-179.079431 61.239598-61.239598 157.119777-61.239598 218.359375 0 61.239598 61.239598 61.239598 157.119777 0 218.359375C1052.570035 256.448588 978.34022 265.418024 921.739985 239.128297L921.739985 239.128297zM1035.249745 55.718794c-26.289726-26.289726-65.569671-26.289726-87.220034 0-26.289726 26.289726-26.289726 65.569671 0 87.220034 26.289726 26.289726 65.569671 26.289726 87.220034 0C1061.539472 121.288465 1061.539472 82.008521 1035.249745 55.718794L1035.249745 55.718794zM908.440476 854.926478c0 21.959654-17.32029 39.279944-34.949872 39.279944l-21.959654 0c-21.959654 0-39.279944-17.32029-39.279944-34.949872l0-82.889961 96.18947-47.940089L908.440476 854.926478 908.440476 854.926478z"  horiz-adv-x="1147" />

    
    <glyph glyph-name="shangpinpingjia1" unicode="&#58997;" d="M137.344 267.6224c43.648 9.49248 87.15264 8.3712 130.48832-3.31776 43.33568-11.70944 82.09408-34.01216 116.25472-66.90816a248.24832 248.24832 0 0 0 41.76384-55.5264 287.2576 287.2576 0 0 0 26.09664-64.05632 270.8992 270.8992 0 0 0 9.48736-67.38432c0.32256-22.77888-1.7408-44.60544-6.15936-65.47968-43.0336-9.49248-86.3744-6.95296-130.02752 7.58272-43.65824 14.55104-82.24768 38.59968-115.78368 72.13056-34.16576 32.90624-57.10336 71.01952-68.80256 114.36032-11.70944 43.32544-12.81024 86.1952-3.31776 128.59904z m758.30784 0c9.49248-42.39872 8.39168-85.25824-3.31264-128.59904s-34.32448-81.45408-67.85536-114.36032c-16.4608-16.45056-35.74784-30.208-57.89184-41.28256a373.18656 373.18656 0 0 0-70.2464-26.56256c-24.66304-6.65088-50.14016-11.07968-76.39552-13.29152s-52.03456-2.688-77.34784-1.42848H487.53664v356.84864c-36.69504 3.79392-70.8608 13.92128-102.49728 30.37184a304.47104 304.47104 0 0 0-67.85536 47.45216 306.55488 306.55488 0 0 0-52.67456 63.58528c-14.55104 23.40864-25.93792 48.7168-34.17088 75.92448-8.22272 27.20256-12.33408 55.67488-12.33408 85.41184 0 39.86432 7.9104 78.45376 23.72096 115.78368 30.37184-7.58784 58.37312-19.13856 83.9936-34.64192a310.43584 310.43584 0 0 0 68.80768-56.46848c5.69344 43.02336 19.76832 82.41152 42.22976 118.15936 22.46144 35.74272 50.77504 65.64352 84.95104 89.68192 35.44064-24.0384 64.39936-54.41024 86.85056-91.10528 22.47168-36.69504 36.21888-76.8768 41.28256-120.53504 20.24448 22.144 43.34592 41.28256 69.27872 57.41568 25.9328 16.13312 54.0928 27.99616 84.46464 35.58912 14.56128-36.06528 21.83168-74.02496 21.83168-113.88416 0-29.1072-3.94752-57.25696-11.86816-84.46464-7.90016-27.20768-19.28704-52.51584-34.1504-75.92448a327.41888 327.41888 0 0 0-52.67968-63.58528 294.63552 294.63552 0 0 0-67.3792-47.45216v-0.95232a320.1536 320.1536 0 0 0-54.56384-21.3504c-18.66752-5.38112-38.12352-8.70912-58.37824-9.97888v-255.2832c7.59808 25.9328 19.30752 50.78016 35.1232 74.496a403.13856 403.13856 0 0 0 55.04512 65.9712c16.45056 16.45056 35.2768 31.00672 56.4736 43.648a335.91808 335.91808 0 0 0 65.95072 30.38208 294.20544 294.20544 0 0 0 69.27872 14.22848c23.40864 1.87904 45.87008 0.61952 67.38432-3.79904z"  horiz-adv-x="1024" />

    
    <glyph glyph-name="shangjia1" unicode="&#58885;" d="M950.618 561.084c-0.065 0.49-0.158 0.946-0.258 1.335-0.386 1.893-0.902 3.718-1.643 5.474l-75.604 190.215c-13.058 39.319-49.212 63.735-94.687 63.735H247.793c-44.573 0-79.204-23.96-91.755-61.838L74.763 565.912c-0.382-1.145-0.807-2.832-1.16-4.569-5.904-18.32-8.87-37.127-8.87-56.003 0.065-66.404 36.122-127.032 94.014-158.167 23.834-12.91 51.922-19.43 83.463-19.43h0.097c52.928 0.128 101.946 23.632 135.362 63.863 33.25-39.864 81.882-63.236 134.713-63.568 52.412 0.396 100.886 23.862 134.002 63.732 33.42-40.23 82.506-63.667 135.686-63.667 32.19 0.195 60.764 7.01 84.821 20.372 57.023 31.455 92.4 91.863 92.376 157.547 0.027 18.908-3.035 37.818-8.649 55.062zM762.75 529.301H246.691c-17.8 0-32.25 14.604-32.25 32.597 0 17.994 14.45 32.6 32.25 32.6h516.06c17.835 0 32.253-14.606 32.253-32.6-0.003-17.996-14.418-32.597-32.254-32.597zM860.146 301.077c-3.327 0-6.32-0.947-9.322-1.92-23.894-9.556-54.47-14.706-77.531-13.435-50.826 2.738-89.562 12.981-126.871 45.083-36.806-31.714-83.762-49.774-133.75-50.232-50.697 0.33-97.915 13.171-134.912 44.954-37.213-32.074-84.721-47.686-135.326-47.686h-0.192c-30.895 0-48.314 5.93-76.44 16.425-0.77 0.388-1.574 0.584-2.382 0.88-1.355 0.521-2.389 0.882-3.775 1.4 0 0-4.645 0.816-7.193 0.816h-0.064c-17.805 0-32.219-14.63-32.19-32.662l0.227-235.189c0-45.967 37.057-83.353 82.628-83.353l606.91 0.386c45.505 0.134 82.528 37.62 82.528 83.588l-0.093 238.354c0.001 18.019-14.416 32.591-32.252 32.591z"  horiz-adv-x="1024" />

    
    <glyph glyph-name="daishouhuo1" unicode="&#59036;" d="M1019.378 866.372H369.46c-62.13 0-112.438-50.456-112.438-112.586v-186.241L16.77 428.383l0.297-0.474c-6.578-4.8-11.081-12.207-11.081-20.977v-318.915c0-16.354 11.792-29.687 26.369-29.687s26.369 13.333 26.369 29.687V391.792l237.645 137.651c11.496 4.09 19.821 14.755 19.821 27.673 0 0.06-0.03 0.089-0.03 0.118h0.03V747.86c0 32.71 26.517 59.227 59.197 59.227h638.066c32.68 0 59.167-26.517 59.167-59.227v-569.152c0-16.354 13.274-29.628 29.628-29.628 16.355 0 29.599 13.274 29.599 29.628V753.786c0 62.13-50.368 112.586-112.468 112.586z m-730.18-477.335c-15.614-0.06-28.324-12.8-28.324-28.384 0-15.614 12.71-28.354 28.354-28.354 0.089 0 0.207 0.06 0.296 0.06h119.341c60.026-0.326 56.62 56.678 56.62 56.678V507.045c0 15.643-12.682 28.354-28.295 28.354-15.644 0-28.325-12.681-28.325-28.354 0-0.06 0.03-0.119 0.03-0.178v-117.83H289.198z m594.07-176.02c-75.048 0-136.467-56.678-145.563-129.414l-297.079 0.118c-9.155 72.677-70.544 129.296-145.562 129.296-81.269 0-147.398-66.188-147.398-147.606 0-81.329 66.129-147.517 147.398-147.517 70.337 0 129.178 49.656 143.755 115.756l300.753-0.119c14.636-66.01 73.418-115.637 143.666-115.637 81.299 0 147.399 66.218 147.399 147.547 0 81.388-66.1 147.606-147.37 147.576zM295.093-19.59c-46.842 0-84.914 38.16-84.914 85.002 0 46.93 38.102 85.032 84.914 85.032 46.842 0 84.943-38.101 84.943-85.032-0.03-46.812-38.13-85.002-84.943-85.002z m588.173 0c-46.841 0-84.913 38.16-84.913 85.002 0 46.93 38.101 85.032 84.913 85.032 46.842 0 84.944-38.101 84.944-85.032-0.03-46.812-38.131-85.002-84.944-85.002z m0 0"  horiz-adv-x="1138" />

    
    <glyph glyph-name="tuijianyouli" unicode="&#58898;" d="M980.732394 384h-43.267605v-342.92462c0-81.429634-68.636845-147.456-153.297127-147.456H225.409803C140.749521-106.38062 72.112676-40.354254 72.112676 41.07538V384H43.267606a43.267606 43.267606 0 0 0-43.267606 43.267606v158.647887a43.267606 43.267606 0 0 0 43.267606 43.267606h698.71414c29.090254 21.38862 83.318986 59.262197 102.645184 59.262197 26.869183 0 48.661634 21.965521 48.661633 49.051042 0 27.099944-21.792451 49.310648-48.661633 49.051042-183.209465-1.773972-211.05938-98.102085-231.222085-98.102084A36.662085 36.662085 0 0 0 576.901408 725.237183c0 20.321352 21.547268 134.879549 267.725522 134.879549C911.821521 860.116732 966.309859 805.224563 966.309859 737.496338a122.678085 122.678085 0 0 0-64.713915-108.313239H980.732394a43.267606 43.267606 0 0 0 43.267606-43.267606v-158.647887a43.267606 43.267606 0 0 0-43.267606-43.267606z m-504.788732-418.253521h72.112676v418.253521h-72.112676v-418.253521z m475.943662 576.901408a14.422535 14.422535 0 0 1-14.422535 14.422536H86.535211a14.422535 14.422535 0 0 1-14.422535-14.422536v-72.112676a14.422535 14.422535 0 0 1 14.422535-14.422535h850.929578a14.422535 14.422535 0 0 1 14.422535 14.422535v72.112676z m-651.970704 86.665014c18.31662 0.072113 187.305465 0.692282 190.175549 0.014423l-190.175549-0.014423z m190.435155 0.014423C293.267831 831.992789 204.425014 800.59493 177.873127 800.59493 151.321239 800.59493 129.802817 778.687099 129.802817 751.659268c0-27.027831 21.518423-48.935662 48.07031-48.935662 26.537465 0 120.082028-73.324169 120.182986-73.410705h-119.086874C111.990986 629.312901 57.690141 683.801239 57.690141 751.024676c0 67.209014 54.300845 121.711775 121.279098 121.711775S351.621408 910.263887 591.323944 629.312901l-100.972169 0.014423z"  horiz-adv-x="1024" />

    
    <glyph glyph-name="anquanshezhi" unicode="&#58889;" d="M963.52686 747.064972l-46.478196 0.739555c-1.080888 0-62.577743 1.99111-170.097683 41.699532C636.814153 830.29337 565.75997 877.112899 565.077304 877.56801L536.917319 896l-27.87554-18.43199c-0.682666-0.512-71.736849-47.27464-182.044343-88.063951-107.463051-39.708422-168.959906-41.699532-169.927017-41.699532l-46.648863-0.739555v-430.421095c0-216.120769 382.179343-444.245087 426.609541-444.643308 43.349309-0.398222 426.66643 228.52254 426.66643 444.58642l-0.170667 430.477983m-476.89929-552.789027L287.289014 348.729193l61.269299 65.592852 127.829262-98.986611 242.574088 254.293192 71.67996-56.490636-304.070942-318.918933"  horiz-adv-x="1024" />

    
    <glyph glyph-name="fuwufanwei1" unicode="&#58950;" d="M457.408 21.184c13.056-2.368 24.896-3.52 36.8-3.52V195.52c-37.952-2.368-79.424-10.688-119.808-24.896 21.376-53.376 49.856-105.6 83.008-149.44M362.56 198.976c45.056 19.008 91.328 30.848 131.648 33.216v134.08H325.76c2.432-53.376 15.488-110.336 36.8-167.296m10.688 399.68c39.104-14.208 81.856-23.68 120.96-26.048V750.464c-11.904 0-23.744-1.152-36.8-3.584-32-43.84-61.632-93.632-84.16-148.224M325.76 401.792h168.448V535.808c-40.32 2.368-86.592 14.208-131.648 33.216-21.312-55.744-34.368-111.488-36.8-167.232m84.224 334.464c-55.744-14.272-105.536-42.688-147.072-80.64 21.312-15.488 48.64-30.848 79.488-43.904 17.728 45.056 41.536 88.96 67.584 124.544m323.712-334.464h143.488c-3.52 88.96-36.736 168.384-91.328 228.864-24.896-17.792-56.896-34.432-92.48-49.792 23.744-64 38.016-128.064 40.32-179.072M262.912 112.448c41.472-37.952 91.328-66.368 147.072-79.424-27.264 36.8-49.856 79.424-66.368 124.48-30.848-13.056-58.176-28.416-80.704-45.056m67.648 468.48c-35.584 15.36-67.648 32-92.544 49.792-54.528-60.48-87.68-139.968-91.264-228.928H290.24c2.368 51.008 16.576 115.072 40.32 179.136m-40.32-214.656H146.752c3.584-88.96 36.736-168.384 91.264-228.864 24.896 17.728 56.96 34.432 92.544 49.792-24.96 64-39.168 129.216-40.32 179.072m239.488-170.816V17.6c11.904 0 23.808 1.152 36.8 3.52 33.216 43.904 61.632 96.064 83.008 149.44-40.32 14.208-81.792 22.528-119.808 24.896m163.648-8.32c35.584-15.36 67.648-32 92.48-49.792 54.592 60.48 87.808 139.968 91.328 228.864H733.696c-1.152-49.792-15.36-115.008-40.32-179.072m-79.36-154.112c55.744 13.056 105.472 41.472 147.008 79.424-22.528 16.64-49.792 32-80.64 45.056-16.576-45.056-39.168-87.744-66.368-124.48M512 832C264.576 832 64 631.424 64 384s200.576-448 448-448 448 200.576 448 448S759.424 832 512 832m0-851.2c-225.344 0-403.2 177.856-403.2 403.2S286.656 787.2 512 787.2 915.2 609.344 915.2 384 737.344-19.2 512-19.2m249.024 674.816c-41.536 37.952-91.328 66.368-147.008 80.64 26.048-35.584 49.792-79.488 67.52-124.48 30.848 12.992 58.176 28.352 79.488 43.84m-62.848-289.344H529.728v-134.016c40.32-2.368 86.592-14.208 131.648-33.216 21.312 56.896 34.496 113.856 36.8 167.232M566.528 746.88c-12.992 2.432-24.896 3.584-36.8 3.584v-177.856c39.168 2.368 81.856 11.84 120.96 26.048-22.528 54.592-52.16 104.384-84.16 148.224m94.848-177.856c-45.056-19.008-91.328-30.848-131.648-33.216v-134.016h168.448c-2.304 55.744-15.488 111.488-36.8 167.232"  horiz-adv-x="1024" />

    
    <glyph glyph-name="dizhi" unicode="&#58947;" d="M512 896C275.91168 896 85.32992 713.95328 85.32992 486.4s335.64672-571.72992 335.64672-571.72992c51.2-56.88832 133.69344-56.88832 184.89344 0 0 0 332.8 344.17664 332.8 571.72992S748.08832 896 512 896z m0-585.95328c-108.08832 0-196.27008 85.32992-196.27008 190.57664S403.91168 691.2 512 691.2s196.27008-85.33504 196.27008-190.58176-88.18176-190.57152-196.27008-190.57152z"  horiz-adv-x="1024" />

    
    <glyph glyph-name="pingjia1" unicode="&#58881;" d="M871.367 24.653c-95.84-95.866-223.272-148.638-358.797-148.638-135.524 0-262.955 52.745-358.796 148.638-95.839 95.815-148.637 223.246-148.637 358.797 0 135.55 52.799 262.98 148.638 358.795 95.841 95.866 223.246 148.639 358.795 148.639 135.551 0 262.957-52.773 358.797-148.639 95.84-95.84 148.639-223.244 148.639-358.795 0-135.551-52.773-262.982-148.639-358.797zM833.661 704.511c-85.771 85.797-199.8 133.027-321.091 133.027-121.263 0-235.293-47.23-321.062-133.027-85.796-85.744-133.027-199.773-133.027-321.062 0-121.265 47.23-235.321 133.027-321.062 85.744-85.798 199.773-133.027 321.062-133.027 121.29 0 235.319 47.229 321.090 133 85.767 85.768 132.999 199.774 132.999 321.089 0.001 121.264-47.23 235.293-132.998 321.062zM529.798 411.11l-50.588-12.49c-11.659 52.46-27.062 114.238-46.216 164.2l50.588 16.239c16.239-42.886 31.645-105.937 46.216-167.948zM703.42 581.556l51.836-13.74c-12.491-59.954-28.729-122.981-48.714-167.948l-49.962 17.488c17.487 40.776 33.1 102.579 46.841 164.2zM629.412 110.838h-52.563v208.387h-156.005v50.535h156.004v235.347h-129.566v52.33h312.139v-52.33h-130.009v-235.347h156.082v-50.535h-156.082v-208.387zM303.093 120.831l-36.301 53.709c10.409 9.135 24.564 19.753 24.564 31.849v242.843h-78.509v51.94h130.45v-271.047c12.074 10.799 39.944 28.104 64.092 51.835l16.238-62.452c-37.055-36.666-77.234-69.532-120.534-98.676zM251.881 633.575l41.219 40.595c41.218-31.226 75.569-62.062 103.047-92.43l-40.595-41.219c-25.813 30.367-60.371 61.385-103.671 93.054z"  horiz-adv-x="1024" />

    
    <glyph glyph-name="kefu" unicode="&#58923;" d="M509.938138 764.089029c-159.043576 0-287.977713-126.205372-287.977712-281.931018 0-155.694637 128.903128-281.900009 287.977712-281.900009s287.977713 126.205372 287.977713 281.900009c0 155.725646-128.934137 281.931018-287.977713 281.931018zM177.400937 373.93768V634.224631c-3.659026 0-7.256034-0.155043-10.822033-0.434121 59.009539 128.096902 190.45538 217.308906 343.390243 217.308906s284.380704-89.212004 343.390243-217.308906a138.422796 138.422796 0 0 1-10.822033 0.434121v-260.286951c73.42858 0 133.027284 58.296339 133.027284 130.143476 0 48.807679-27.504709 91.320595-68.126094 113.615843C850.258521 778.787148 694.129762 894.480574 509.969147 894.480574 325.83954 894.480574 169.710781 778.787148 112.530755 617.696999c-40.652394-22.26424-68.126094-64.808164-68.126093-113.615843-0.031009-71.878146 59.505678-130.143476 132.996275-130.143476zM797.295677 224.723859a424.757048 424.757048 0 0 0-287.357539-110.825061 424.570996 424.570996 0 0 0-286.954426 110.483966c-134.577719-67.847016-222.952488-188.470823-222.952487-352.413773h1023.2868c0 164.191018-90.01823 285.031887-226.022348 352.754868z"  horiz-adv-x="1024" />

    
    <glyph glyph-name="pingjia" unicode="&#59007;" d="M390.967341-96.1493c-12.74028 0-19.11042 6.37014-25.48056 12.74028-95.5521 108.292379-248.435459 108.292379-254.805599 108.292379-19.11042 0-38.22084 19.11042-38.22084 38.22084s19.11042 38.22084 38.22084 38.22084c6.37014 0 191.104199 0 305.766718-133.772939 12.74028-12.74028 12.74028-38.22084 0-50.96112-12.74028-12.74028-19.11042-12.74028-25.480559-12.74028z m242.065318 0c-6.37014 0-19.11042 6.37014-25.480559 12.74028-12.74028 12.74028-12.74028 38.22084 0 50.96112 121.032659 133.772939 299.396579 133.772939 305.766718 133.772939 19.11042 0 38.22084-19.11042 38.22084-38.22084s-19.11042-38.22084-38.22084-38.22084c0 0-152.883359 0-254.805599-108.292379-6.37014-12.74028-12.74028-12.74028-25.48056-12.74028z m-191.104199 184.734059c-121.032659 19.11042-229.325039 89.18196-293.026438 203.844479C66.090202 426.202177 46.979782 598.195956 104.311042 725.598756c6.37014 12.74028 19.11042 19.11042 31.8507 25.48056h12.74028c70.07154 0 133.772939-12.74028 191.104199-38.22084C384.597201 782.930016 429.18818 846.631415 486.51944 884.852255c0 0 6.37014 6.37014 12.74028 6.37014 12.74028 6.37014 25.48056 6.37014 31.8507 0 0 0 6.37014 0 6.37014-6.37014 50.96112-38.22084 101.92224-95.5521 146.513219-178.363919 57.33126 25.48056 127.402799 38.22084 197.474339 38.22084h12.74028c12.74028 0 25.48056-6.37014 31.8507-25.48056 50.96112-121.032659 31.8507-299.396579-44.59098-433.169518-70.07154-114.662519-171.993779-184.734059-299.396578-203.844479M550.22084-89.77916s0-38.22084-38.22084-38.22084-38.22084 38.22084-38.22084 38.22084v210.214619h70.07154v-210.214619z"  horiz-adv-x="1024" />

    
    <glyph glyph-name="yinsi" unicode="&#58918;" d="M299.3 385.1c0 116.7 94.9 211.3 211.9 211.3s211.9-94.6 211.9-211.3c0-116.7-94.9-211.3-211.9-211.3s-211.9 94.6-211.9 211.3z m692.2 72.1c-79.2 100-271.3 266.2-480.3 266.2-209.6 0-401.7-166.2-480.3-266.2-18-22.6-27.4-47.3-27.9-72.1 0.6-24.7 10.5-49.5 27.9-72.1 78.6-100 270.7-266.2 480.3-266.2 209.6 0 401.1 166.2 480.3 266.3 18 22.6 27.9 47.3 28.5 72.1-1.1 24.6-10.5 49.4-28.5 72z m-607.8-72.1c0-69.9 57.1-126.9 126.9-126.9 69.8 0 126.9 57 126.9 126.9v1.1c-13.4-14-32-22-53-22-40.8 0-73.9 33.3-73.9 74.2 0 29.6 17.5 54.8 41.9 66.7-13.4 4.8-27.4 7-41.9 7-69.8-0.1-126.9-57.1-126.9-127z"  horiz-adv-x="1024" />

    
    <glyph glyph-name="zuji" unicode="&#58895;" d="M392.20260260286693 329.6268640680771c11.27257138601613 32.56262512791703 32.56441055510123 86.41709080575997 2.5066016825310284 190.37326134638616-30.0595942997544 103.95616915978536-73.89657486003095 144.5884846720527-134.01219122433054 144.58848329121184 0 0-103.25810579430716 5.679133183747161-110.21910527342617-158.3658723134156-7.692984580256131-181.3412781817047 55.93616054566979-225.86382687885168 75.89435879272295-329.5914724057863l150.79250445029663 43.08357171376988c-5.368485423786667 44.81355675808131 7.182381403232922 87.22049023258339 15.03783157220609 109.91202836783405z m3.383199481384033-167.17825898116737l-162.7488571651582-46.49890750362864c8.432111390130041-106.65023103077135 60.34592404349366-192.32284012594567 149.3463871390235-168.26731018737252 92.68359777376921 25.0481736001949 50.32844030676806 150.9799646387516 14.005911274213664 213.60575353995063-0.22316597045728392 0.38027527762172836-0.38563155917432096 0.7748325918762139-0.6034412480790123 1.160464151050535zM628.8890966916108 490.14762962134915c-11.270785958831931 32.56441055510123-32.56262512791703 86.4188762329442-2.5030322090034565 190.37325996554532 30.0595942997544 103.95616915978536 73.89478943284674 144.5884846720527 134.01219122433054 144.5884846720527 0 0 103.25810579430716 5.679133183747161 110.21731984624196-158.3658723134156 7.694770007440327-181.3412781817047-55.9343751184856-225.86382687885168-75.89257336553877-329.59147378662715l-150.796075304665 43.0835730946107c5.368485423786667 44.81355675808131-7.184165449576296 87.21870480539917-15.037830191365266 109.91202836783405z m-3.381414054199835-167.17647355398321l162.74707035713317-46.49890888446946c-8.432111390130041-106.65201645795557-60.34770947067785-192.32284012594567-149.3463871390235-168.26730880653167-92.68181234658502 25.0481736001949-50.32665487958387 150.9799646387516-14.005909893372836 213.60575353995063 0.22316597045728392 0.38027527762172836 0.38563155917432096 0.7748325918762139 0.6052266752632097 1.160464151050535z"  horiz-adv-x="1024" />

    
    <glyph glyph-name="wodexiaoxi2" unicode="&#58924;" d="M524.319072 781.437801L295.981596 634.791883H182.07022c-63.296605 0-114.596991-50.672076-114.596991-114.140597v-228.738611c0-63.069431 50.6731-114.139573 114.596991-114.139573h113.911376L524.319072 31.241794c32.278147-13.997805 57.300031 0.969071 57.30003 32.731472V748.704282c0 31.819706-25.651216 46.38647-57.30003 32.733519zM89.628832 137.924535h0.056281v0.329505l-0.056281-0.329505zM688.870802 213.068979c-14.71412 14.290471-4.167926 33.815153 9.413393 51.370995 34.922371 45.237297 51.918463 93.523023 51.918464 141.998061 0.149403 62.413492-36.220946 122.090663-51.918464 143.076626-12.980639 17.447371-24.048719 35.645848-10.559496 48.804543 16.040325 15.657608 29.838585 7.350408 36.891211-1.77646 46.970778-60.567447 72.152297-119.032 72.588226-190.118012 0.340761-55.347562-23.802102-121.844046-72.017221-185.350428-4.02978-5.490038-22.24156-21.681812-36.31509-8.018628v0.013303h-0.001023zM804.676317 74.74561c-14.742772 15.84999-4.223185 39.349193 8.128122 54.980196 58.640562 74.229608 96.6789 167.437453 96.63592 276.358165-0.039909 108.920712-36.177967 196.826807-95.311762 280.620236-11.338233 16.068977-23.404036 36.46654-9.56382 50.347688 13.840216 13.883195 31.205723 5.152347 36.494169-1.993401 71.345931-96.596012 116.872824-200.967104 116.77561-328.905961-0.095167-127.937834-41.794895-229.53679-116.489084-322.878689-4.123924-5.234211-26.368554-19.594267-36.669155-8.528234z"  horiz-adv-x="1024" />

    
    <glyph glyph-name="shoucang" unicode="&#59181;" d="M707.584 802.816c-77.312 0-148.992-38.912-196.608-102.912-47.104 64-119.296 102.912-196.608 102.912-139.264 0-252.416-123.904-252.416-275.968 0-90.624 40.448-154.624 73.216-205.824C229.888 172.032 468.48-12.8 478.72-20.48c9.728-7.68 20.992-11.264 32.256-11.264s22.528 3.584 32.256 11.264c10.24 7.68 248.32 193.024 343.552 341.504 32.768 51.2 73.216 115.2 73.216 205.824 0 152.064-113.152 275.968-252.416 275.968z"  horiz-adv-x="1024" />

    
    <glyph glyph-name="daishouhuo2" unicode="&#59000;" d="M790.415395-0.052784a126.680412 126.680412 0 1 1 126.680413 127.947217 127.173058 127.173058 0 0 1-126.680413-127.947217z m-638.469278 0a126.680412 126.680412 0 1 1 126.680412 127.947217 127.173058 127.173058 0 0 1-126.75079-127.947217zM38.778282 436.150103S0 381.396014 0 332.975945v-255.894433a51.094433 51.094433 0 0 1 50.672165-51.094433h50.390653a180.44921 180.44921 0 0 0 177.493333 156.450309 180.589966 180.589966 0 0 0 177.493334-156.591065h283.412233a178.900893 178.900893 0 0 0 354.916289 0h93.884261a50.953677 50.953677 0 0 1 50.672165 51.094433V844.905567a50.953677 50.953677 0 0 1-50.672165 51.094433H455.556838a50.953677 50.953677 0 0 1-50.531408-51.094433v-153.846323H227.883986c-37.159588 0-52.853883-22.94323-75.937869-51.094433l-113.097457-204.09622zM84.453608 332.975945c0 12.808797 10.275189 29.347629 19.705842 43.493608L211.134021 576.765361s11.330859 12.034639 19.42433 12.034639h123.865292V332.975945z"  horiz-adv-x="1238" />

    
    <glyph glyph-name="denglu-mima" unicode="&#58899;" d="M783.465124-124.387497H258.507077c-75.14728 0-124.421816 59.114993-124.421816 129.479319v336.58771c0 38.581528 30.590672 69.822451 68.34855 69.822451h45.589783v-2.61184h546.503013v2.61184h49.632174c37.76149 0 68.352163-31.240923 68.352162-69.822451v-329.416892c0-76.751231-53.952727-136.650138-129.045819-136.650137z m-127.893431 597.609087V602.18071c0 88.029464-53.111014 140.706978-135.317124 140.706978-74.085204 0-125.158767-52.677514-125.158767-140.706978v-128.95912H264.695294V632.251182c0 135.002836 111.221731 244.454442 259.630565 244.454441 132.138122 0 257.564214-109.451605 257.564214-244.454441v-159.029592h-126.31838z"  horiz-adv-x="1024" />

    
    <glyph glyph-name="yinsi1" unicode="&#58892;" d="M1005.206 544.689c10.75 16.126 7.165 37.628-7.168 50.169-16.126 12.544-37.628 8.958-50.169-7.168-1.793-1.793-200.674-236.511-437.187-236.511-229.342 0-437.187 236.511-438.981 238.3-12.544 14.333-35.835 16.126-50.169 3.586-14.333-12.544-16.126-35.835-3.586-50.172 3.586-5.372 46.586-53.751 114.674-107.506l-91.383-94.962c-14.333-14.333-12.54-37.628 1.793-50.169 3.586-7.168 12.544-10.754 21.502-10.754s17.916 3.586 25.084 10.754l98.547 102.126c46.586-32.252 102.13-62.713 163.049-84.21l-37.628-127.214c-5.372-19.709 5.376-39.417 25.084-44.793h10.747c16.126 0 30.459 10.75 34.046 26.873l37.628 127.218c28.667-5.376 59.129-8.962 89.586-8.962 30.459 0 60.919 3.586 89.589 8.962l37.628-125.424c3.582-16.123 19.709-26.877 34.042-26.877 3.586 0 7.165 0 8.962 1.793 19.709 5.379 30.456 25.084 25.084 44.796l-37.628 125.421c60.919 21.502 116.466 51.961 163.049 84.214l96.754-100.336c7.168-7.168 16.126-10.754 25.084-10.754s17.92 3.586 25.084 10.75c14.333 14.333 14.333 35.835 1.793 50.169l-91.378 94.962c73.466 53.758 116.469 105.719 116.469 105.719z"  horiz-adv-x="1024" />

    
    <glyph glyph-name="gouwuche" unicode="&#58882;" d="M347.136 112.63999999999999q19.456 0 36.864-7.168t30.72-19.968 20.48-30.208 7.168-36.864-7.168-36.864-20.48-30.208-30.72-20.48-36.864-7.68q-20.48 0-37.376 7.68t-30.208 20.48-20.48 30.208-7.168 36.864 7.168 36.864 20.48 30.208 30.208 19.968 37.376 7.168zM773.12 110.59199999999998q19.456 0 37.376-7.168t30.72-19.968 20.48-30.208 7.68-36.864-7.68-36.864-20.48-30.208-30.72-20.48-37.376-7.68-36.864 7.68-30.208 20.48-20.48 30.208-7.68 36.864 7.68 36.864 20.48 30.208 30.208 19.968 36.864 7.168zM945.152 692.2239999999999q28.672 0 44.544-7.68t22.528-18.944 6.144-24.064-3.584-22.016-12.8-37.888-22.016-62.976-24.064-68.096-17.92-53.248q-13.312-40.96-33.792-56.832t-50.176-15.872l-34.816 0-66.56 0-87.04 0-95.232 0-253.952 0 15.36-92.16 516.096 0q49.152 0 49.152-41.984 0-20.48-9.728-35.328t-38.4-14.848l-49.152 0-95.232 0-117.76 0-119.808 0-98.304 0-56.32 0q-20.48 0-34.304 9.216t-23.04 24.064-14.848 32.256-8.704 32.768q-1.024 6.144-5.632 29.696t-11.264 58.88-14.848 78.848-16.384 87.552q-19.456 103.424-44.032 230.4l-76.8 0q-15.36 0-25.6 7.68t-16.896 18.432-9.216 23.04-2.56 22.528q0 20.48 13.824 33.792t37.376 13.312l22.528 0 20.48 0 25.6 0 34.816 0q20.48 0 32.768-6.144t19.456-15.36 10.24-19.456 5.12-17.408q2.048-8.192 4.096-23.04t4.096-30.208q3.072-18.432 6.144-38.912l700.416 0z"  horiz-adv-x="1024" />

    
    <glyph glyph-name="qishou" unicode="&#58884;" d="M739.773217 766.486261v-107.297391c0-71.94713 60.994783-129.469217 135.346087-129.469218h263.524174c74.351304 0 135.390609 57.477565 135.390609 129.513739v107.297392c0 71.991652-60.994783 129.469217-135.390609 129.469217h-263.524174c-74.351304 0-135.346087-57.522087-135.346087-129.513739z m398.870261 48.083478c29.829565 0 53.203478-21.949217 53.203479-48.083478v-107.297391c0-26.089739-23.329391-48.083478-53.203479-48.083479h-263.524174c-29.829565 0-53.158957 21.993739-53.158956 48.083479v107.297391c0 26.134261 23.373913 48.083478 53.158956 48.083478h263.524174z m-234.451478-651.130435c0 22.528 18.342957 40.69287 41.093565 40.69287a40.96 40.96 0 0 0 41.093565-40.69287 40.96 40.96 0 0 0-41.093565-40.692869 40.826435 40.826435 0 0 0-41.093565 40.692869z m164.374261 0c0 67.405913-55.296 122.078609-123.325218 122.078609-68.118261 0-123.280696-54.628174-123.280695-122.078609s55.162435-122.078609 123.325217-122.078608c67.984696 0 123.280696 54.672696 123.280696 122.078608z m-822.00487 0a40.96 40.96 0 0 0 41.138087 40.69287c22.661565 0 41.138087-18.253913 41.138087-40.69287a40.96 40.96 0 0 0-41.138087-40.692869 40.915478 40.915478 0 0 0-41.138087 40.692869z m164.463305 0c0 67.405913-55.296 122.078609-123.325218 122.078609-68.118261 0-123.325217-54.672696-123.325217-122.078609 0-67.450435 55.206957-122.078609 123.325217-122.078608 68.029217 0 123.325217 54.672696 123.325218 122.078608zM996.663652 489.071304c-4.897391 0-8.904348-0.667826-12.332522-1.602782-0.445217-0.044522 7.880348-39.891478 7.880348-39.891479l5.209044 40.336696a51.912348 51.912348 0 0 1-11.041392 1.157565h-148.613565l-4.763826-1.157565c-43.497739-10.418087-83.255652-25.644522-116.068174-47.282087l-18.253913-12.020869-0.133565-21.593044a122.701913 122.701913 0 0 0-123.14713-121.455304 122.835478 122.835478 0 0 0-120.965566 99.59513l-2.226087-22.661565 28.761044 71.056696-36.641391-25.510957c72.837565 2.626783 131.072 60.460522 131.072 131.917913v28.093218h-41.093566l35.57287-20.390957 46.925913 80.228174a128.712348 128.712348 0 0 1-48.083478 177.285565c-56.720696 32.233739-142.469565-18.120348-201.282783-86.149565l31.165217 14.246956H218.245565c-74.885565 0-136.013913-58.946783-136.013913-132.274086v-30.541914c0-54.227478 38.912-108.989217 95.98887-139.79826l-15.538087 56.765217-55.963826-91.937391-5.921392-9.705739v-11.308522c0-9.349565 1.113043-18.432 3.161044-27.826087l40.158609 8.637217-23.730087 33.213218C45.501217 336.005565 0 251.681391 0 159.699478c0-155.291826 127.688348-281.154783 285.072696-281.154782a285.473391 285.473391 0 0 1 252.438261 150.661565l-36.32974-21.726609h236.410435l-36.329739 21.726609a285.117217 285.117217 0 0 1 252.126609-150.661565c157.206261 0 284.716522 125.862957 284.716521 281.154782 0 36.730435-7.212522 72.570435-21.058782 105.828174l-38.021565-15.538087v-40.692869c6.90087 0 10.596174 0 18.031304-0.089044 36.507826-0.445217 49.641739 0.178087 66.871652 5.342609 31.654957 9.394087 51.2 33.970087 51.2 68.518956v33.079653c0 76.577391-89.84487 172.877913-164.374261 172.877913h-154.089739z m236.27687-172.877913v-33.079652c0 2.359652 5.075478 8.726261 7.301565 9.349565-5.787826-1.691826-15.716174-2.137043-42.295652-1.825391a1340.772174 1340.772174 0 0 1-16.384 0.133565h-63.933218l23.418435-56.230956a194.114783 194.114783 0 0 0 14.825739-74.796522c0-110.280348-90.601739-199.724522-202.484869-199.724522a202.841043 202.841043 0 0 0-179.422609 107.163826l-11.575652 21.771131H476.382609l-11.575652-21.726609a203.152696 203.152696 0 0 0-179.734261-107.208348c-112.061217 0-202.885565 89.488696-202.885566 199.724522 0 65.179826 32.233739 124.928 85.659827 162.326261l22.171826 15.582609-5.787826 26.267826a48.973913 48.973913 0 0 0-1.246609 10.551652h-41.138087l35.216696-21.014261 55.963826 91.937391 22.171826 36.374261-37.665392 20.346435c-32.50087 17.541565-53.158957 46.614261-53.158956 68.340869v30.541914c0 27.870609 23.863652 50.843826 53.826782 50.843826h199.368348l12.288 14.246956c16.918261 19.589565 41.984 40.737391 64.823652 54.138435a109.523478 109.523478 0 0 0 29.117218 12.777739c4.140522 0.890435 5.209043 0.890435 3.917913 1.602783 23.507478-13.401043 31.521391-42.829913 17.986783-65.892174l-46.970435-80.228174-5.520696-9.483131v-39.045565c0-27.069217-22.661565-49.552696-51.867826-50.576695l-26.713043-0.979479-9.97287-24.576-28.761044-71.056695-4.452173-10.99687 2.226087-11.620174c18.120348-95.721739 102.4-165.977043 201.728-165.977043 112.951652 0 204.621913 90.423652 205.378782 202.306782l-41.093565 0.267131 22.706087-33.925566c23.730087 15.582609 54.984348 27.603478 89.933913 35.973566l-9.661217 39.579826v-40.69287h143.716173a20.48 20.48 0 0 0-4.006956 0.267131c1.602783-0.311652 1.602783-0.311652 4.630261-0.75687l4.808348-0.623304 4.808347 0.534261c5.787826 0.890435 5.787826 0.890435 7.746783 1.424695a30.853565 30.853565 0 0 0-7.702261-0.890435h154.089739c27.603478 0 82.18713-58.501565 82.187131-91.447652z"  horiz-adv-x="1335" />

    
    <glyph glyph-name="shangpinpingjia2" unicode="&#58896;" d="M253.903931 63.852506a158.393813 158.393813 0 0 1-95.836257-32.638725 159.073786 159.073786 0 0 1 255.610016-126.535058 159.813757 159.813757 0 0 1-159.773759 159.173783z m351.786258-159.153783A159.073786 159.073786 0 0 1 861.300204 31.23378a159.073786 159.073786 0 0 1-255.610015-126.535057z m300.988243 827.227686a61.037616 61.037616 0 0 1-43.398305 18.319285h-1.79993c-57.277763-1.679934-105.455881-17.519316-154.753955-38.318504a301.108238 301.108238 0 0 1-47.178157 86.136636 345.106519 345.106519 0 0 1-61.997578 61.557595C565.591755 883.72048 535.372936 896 507.674018 896c-42.858326 0-89.996485-29.678841-143.994375-90.656459a294.708488 294.708488 0 0 1-54.377876-89.656498c-45.598219 20.579196-88.396547 33.178704-142.374439 34.558651C132.528672 751.125659 103.109821 721.946799 103.109821 687.288153c0-27.078942-1.039959-54.997852-2.179915-84.516699-3.559861-94.536307-7.299715-192.232491 22.759111-279.989063 24.279052-71.057224 71.517206-132.794813 136.614664-178.533026 59.997656-42.178352 132.174837-69.057302 208.571852-77.656966l1.099957-0.119996 7.819695-0.279989v-162.193664a31.99875 31.99875 0 0 1 63.9975 0v160.353736c165.393539 8.339674 311.587829 116.655443 364.085778 270.509433 16.11937 47.178157 16.419359 95.99625 16.739346 143.11441 0 7.999688 0 16.279364 0.219991 24.279052q0.319988 16.859341 0.599977 33.738682c0.939963 49.518066 1.859927 100.696067 1.999922 151.174094a63.537518 63.537518 0 0 1-18.759267 44.758252z"  horiz-adv-x="1024" />

    
    <glyph glyph-name="pingjia2" unicode="&#59201;" d="M960 414.08v-83.84a99.84 99.84 0 0 0-5.76-33.28L832-10.24a72.96 72.96 0 0 0-74.24-53.76H389.76a76.16 76.16 0 0 0-56.96 26.88 87.68 87.68 0 0 0-24.96 64V461.44a87.68 87.68 0 0 0 24.96 64l256 296.32a53.12 53.12 0 0 0 73.6-13.44 107.52 107.52 0 0 0-4.48-98.56l-101.76-204.8h320A80 80 0 0 0 960 414.08zM64-64V461.44h163.84V-64z"  horiz-adv-x="1024" />

    
    <glyph glyph-name="yinsi2" unicode="&#59035;" d="M917.4016 715.0592a69.7344 69.7344 0 0 1-44.8512 15.7696h-4.7104c-0.9216 0-11.3664-0.8192-27.648-0.8192a631.5008 631.5008 0 0 0-130.8672 13.1072c-65.1264 13.824-140.4928 79.1552-162.5088 92.16A74.9568 74.9568 0 0 1 510.464 844.8a78.1312 78.1312 0 0 1-36.352-9.5232c-2.8672-1.7408-81.1008-75.776-157.5936-92.16a645.12 645.12 0 0 0-131.7888-13.1072c-17.2032 0-27.648 0.8192-28.5696 0.8192h-3.7888a67.584 67.584 0 0 1-44.8512-15.7696 53.76 53.76 0 0 1-20.48-41.8816v-144.6912c0-533.0944 396.1856-601.8048 412.3648-604.16a53.3504 53.3504 0 0 1 11.3664-0.8192 54.272 54.272 0 0 1 11.4688 0.512c17.2032 2.6624 415.3344 71.68 415.3344 604.16V673.1776a56.0128 56.0128 0 0 1-20.1728 41.8816zM750.08 473.1904L509.5424 232.8576a35.5328 35.5328 0 0 0-48.4352-1.6384l-142.336 124.5184a35.4304 35.4304 0 0 0 46.6944 53.248l117.4528-102.4L699.904 523.264a35.4304 35.4304 0 1 0 50.0736-50.0736z"  horiz-adv-x="1024" />

    
    <glyph glyph-name="wodexiaoxi3" unicode="&#58893;" d="M304.79 851.4C368.56 879.66 438.22 894.51 507.97 894.83 592.09 895.61 676.35 875.14 750.63 835.6c71.64-37.88 133.98-93.11 180.33-159.58 34.1-48.75 59.59-103.51 74.83-161.03 26.24-98.75 22.21-205.39-11.94-301.73-27.01-76.9-72.97-146.98-132.42-202.69-57.75-54.37-128.34-95.04-204.41-117.52-44.46-13.27-90.75-20.08-137.11-21.05h-16.76c-58.71 1.14-117.31 11.96-172.24 32.82-62.7 23.58-120.57 59.8-169.37 105.66C104.72 63.7 60.23 130.03 32.81 202.91 12.08 257.51 1.26 315.72 0 374.07v18.77c1.27 58.65 12.2 117.14 33.11 171.97 24.48 64.6 62.29 124.1 110.31 173.75 45.83 47.55 100.95 86.16 161.37 112.84m-64.17-234.1c-12.64-8.29-23.43-20.42-27.48-35.23-2.43-8.13-1.82-16.69-1.89-25.05 0.01-104.39-0.03-208.77 0.02-313.16 0.16-15.94 8.49-30.89 20.36-41.18 14.39-12.63 33.07-19.65 51.94-21.83 11.09-1.14 22.26-0.79 33.39-0.85 64.73-0.04 129.46 0.08 194.18-0.06 3.08-1.67 5.68-4.17 8.58-6.17 53.75-40.39 107.51-80.78 161.31-121.1-2.85 42.45-5.93 84.9-9.03 127.34 12.67-0.02 25.34 0 38.01-0.01 14.29 0 28.8-0.35 42.75 3.25 15.01 3.64 29.39 10.66 40.66 21.32 9.76 9.3 16.94 21.81 18.04 35.41 0.58 7.68 0.16 15.39 0.29 23.08-0.08 72.65 0.21 145.3-0.25 217.94v90.01c-0.46 13.09-6.58 25.57-15.57 34.93-14.04 14.86-33.88 23.19-53.89 25.97-9.61 1.48-19.35 1.03-29.03 1.09h-413c-20.71 0.48-41.92-4.27-59.39-15.7zM335.52 464.29c11.44 1.69 23.42-0.55 33.42-6.39 13.71-7.87 23.57-22.12 25.87-37.79 2.39-15.12-2.08-31.24-12.2-42.78-8.84-10.41-21.93-17.12-35.58-18.07-14.65-1.19-29.73 4.18-40.21 14.52-10.09 9.58-16.02 23.33-16.18 37.23-0.32 14.07 5.21 28.24 15.23 38.15 7.85 8.14 18.47 13.51 29.65 15.13zM500.49 464.26c13.09 1.83 26.81-1.57 37.51-9.34 12.57-8.87 20.75-23.56 21.85-38.89 1.25-14.98-4.21-30.42-14.81-41.11-8.83-9.24-21.2-14.98-33.95-15.8-14.68-1.07-29.68 4.48-40.1 14.87-10.38 10.08-16.26 24.58-15.87 39.04 0.24 14.7 6.96 29.16 18.07 38.78 7.65 6.66 17.23 11.11 27.3 12.45zM664.45 464.33c12.54 2.78 26.09 0.78 37.21-5.69 11.62-6.57 20.44-17.78 24.27-30.55 3.92-12.97 2.7-27.45-3.51-39.51-7.38-14.7-22.03-25.54-38.31-28.08-12.94-2.13-26.64 0.82-37.47 8.23-11.96 7.95-20.27 21.05-22.54 35.21-1.89 11.4-0.02 23.39 5.4 33.6 7.04 13.42 20.11 23.57 34.95 26.79z"  horiz-adv-x="1024" />

    
    <glyph glyph-name="denglumima" unicode="&#58952;" d="M804.743529 444.235294h-6.625882v120.470588A293.647059 293.647059 0 0 1 512 865.882353a293.647059 293.647059 0 0 1-286.117647-301.176471v-120.470588h-6.625882a84.028235 84.028235 0 0 1-83.727059-83.124706v-375.265882A84.028235 84.028235 0 0 1 219.256471-97.882353h585.487058a84.028235 84.028235 0 0 1 83.727059 83.727059V361.110588A84.028235 84.028235 0 0 1 804.743529 444.235294zM316.235294 564.705882c0 97.581176 98.183529 184.018824 195.764706 184.018824s195.764706-86.437647 195.764706-184.018824v-120.470588h-391.529412z m301.176471-572.235294h-210.82353l60.235294 150.588236a97.882353 97.882353 0 0 0-66.861176 93.665882 112.037647 112.037647 0 0 0 224.075294 0A97.882353 97.882353 0 0 0 557.176471 143.058824z"  horiz-adv-x="1024" />

    
    <glyph glyph-name="daifukuan" unicode="&#59008;" d="M1003.813311 182.59608l2.254468-0.123651V803.993844c0 50.734153-45.641471 91.997529-101.780309 91.997529H275.821488c-56.079888 0-101.78606-41.263375-101.78606-91.997529v-508.450075H173.973603v-268.061691c0-50.702522 45.700421-91.968773 101.847885-91.968773h407.702106c37.197282-39.011783 89.213951-63.519056 147.168728-63.519056 112.474653 0 204.007773 91.527369 204.007773 204.063847 0.005751 39.141185-11.626038 75.434092-30.886784 106.537984zM275.821488-0.526234c-20.50588 0-37.827037 12.816535-37.827037 28.008312V279.851637h0.061825V803.993844c0 15.193215 17.321157 28.00975 37.765212 28.00975h628.465982c20.503005 0 37.756585-12.816535 37.756585-28.00975v-557.473249c-32.134794 21.010548-70.272395 33.454693-111.350295 33.454693-112.474653 0-203.943072-91.505802-203.943072-203.917192 0-27.132693 5.565717-52.889413 15.194653-76.585768H275.821488z m554.870834-63.460107c-77.152261 0-139.917911 62.768526-139.91791 140.044437 0 77.124942 62.76565 139.893468 139.91791 139.893468 77.214086 0 139.988363-62.768526 139.988363-139.893468 0.001438-77.275911-62.772839-140.044437-139.988363-140.044437z m0 0M849.137838 87.498658v95.784689c0 8.848211-7.127167 16.004134-16.00701 16.004134s-16.007009-7.155922-16.007009-16.004134v-111.785947c0-8.815142 7.127167-16.004134 16.007009-16.004134h90.092446c8.818017 0 16.007009 7.188992 16.00701 16.004134 0 8.812266-7.188992 16.001258-16.00701 16.001258h-74.085436z m0 0M781.493738 382.163931c0 17.692109-14.383735 32.008267-32.011143 32.008268h-128.04601v64.022286h128.04601c17.627408 0 32.005392 14.383735 32.005392 32.01258 0 17.692109-14.377984 32.008267-32.005392 32.008268h-114.788071l99.906858 99.909733c12.501657 12.503095 12.501657 32.761674 0 45.263331-12.504532 12.507408-32.75736 12.507408-45.264769 0l-99.906857-99.903983-99.909734 99.903983c-12.507408 12.569233-32.760236 12.569233-45.269081 0-12.501657-12.501657-12.501657-32.692659 0-45.263331l99.911171-99.909733h-114.788071c-17.630284 0-32.014019-14.316158-32.014019-32.008268 0-17.628846 14.383735-32.012581 32.014019-32.01258h128.043134v-64.022286h-128.043134c-17.630284 0-32.014019-14.316158-32.014019-32.008268 0-17.630284 14.383735-32.014019 32.014019-32.014018h128.043134l-0.376703-70.148745c0-17.630284 14.316158-32.008267 32.008267-32.008267 17.633159 0 32.011143 14.377984 32.011143 32.008267l0.376703 70.148745h128.04601c17.627408 0 32.011143 14.383735 32.011143 32.014018z m0 0"  horiz-adv-x="1237" />

    
    <glyph glyph-name="pinpaijieshao" unicode="&#58883;" d="M531.948052 89.473662a403.256519 403.256519 0 1 0 403.456 403.243221A403.828364 403.828364 0 0 0 531.948052 89.473662z m0 764.409351a361.16613 361.16613 0 1 1 361.352312-361.16613A361.724675 361.724675 0 0 1 531.948052 853.883013zM668.273039 385.32987l72.916779-114.089558h-69.778286l-55.455584 87.252779c-16.211117 25.054753-29.563013 44.391065-40.122182 57.663169a122.959792 122.959792 0 0 1-28.113454 27.927272 84.114286 84.114286 0 0 1-25.267533 11.237403 174.359273 174.359273 0 0 1-30.946078 1.94161L425.558442 457.142857v-186.181818l-53.846442 0.332467L372.363636 270.961039V696.519481h186.181819a221.875532 221.875532 0 0 0 84.247272-17.474494 93.48987 93.48987 0 0 0 46.651844-39.816312 119.302649 119.302649 0 0 0 17.394702-63.208727 104.900156 104.900156 0 0 0-28.898078-75.137662q-28.858182-30.587013-89.234286-38.938598a140.088519 140.088519 0 0 0 33.48613-20.865662 289.565922 289.565922 0 0 0 46.08-55.748156z m-62.370909 127.893611a63.288519 63.288519 0 0 1 32.595117 25.18774 67.823377 67.823377 0 0 1 11.144311 37.555532 62.277818 62.277818 0 0 1-21.583792 48.872728C613.708468 637.686026 589.704312 643.324675 558.545455 643.324675H425.558442v-132.987013h119.688311c25.267532 0 46.399169-2.327273 60.655377 2.939013zM209.082182 225.160312a21.051844 21.051844 0 0 0 0-29.762494L93.090909 84.779221h119.688312v-119.688312l125.007792 130.127792a21.051844 21.051844 0 0 0 29.775792-29.762493L174.026805-128V45.907117H0l179.30639 179.253195a21.105039 21.105039 0 0 0 29.775792 0z m516.987013-129.954909l121.683117-121.629922L851.116883 84.779221h106.389611l-102.705871 110.618597a21.051844 21.051844 0 0 0 29.775793 29.762494L1063.896104 45.907117H889.869299V-128L696.293403 65.456208a21.065143 21.065143 0 0 0 29.815688 29.749195z"  horiz-adv-x="1063" />

    
    <glyph glyph-name="yijianfankui1" unicode="&#58957;" d="M1025.374817 785.986258l84.885333-84.885333c117.264274-117.264274 117.264274-307.287406 0-424.676695-117.264274-117.264274-307.287406-117.264274-424.55168 0l-84.885333 84.885333c-117.264274 117.264274-117.264274 307.287406-0.125015 424.676695 117.264274 117.264274 307.287406 117.264274 424.676695 0z m0 0M897.859295 166.160808c-86.135485 0-167.270362 33.629094-228.027757 94.511505l-84.885333 84.885332c-125.765309 125.765309-125.765309 330.290206 0 456.055515 60.882411 60.757396 141.892272 94.38649 228.027757 94.38649 86.135485 0.125015 167.270362-33.504078 228.027758-94.38649L1125.887053 716.727827c125.765309-125.765309 125.765309-330.290206 0-456.055514-60.757396-61.007426-141.892272-94.511505-228.027758-94.511505zM812.973962 851.744263C738.839938 851.744263 668.956431 822.740732 616.45004 770.234341c-108.388194-108.263179-108.388194-284.784666 0-393.172861l84.885333-84.885333c52.506392-52.506392 122.264883-81.384907 196.523922-81.384906 74.259039 0 144.017531 29.003531 196.523923 81.384906 108.388194 108.263179 108.388194 284.784666 0 393.172861l-84.885333 84.885333C957.116508 822.740732 887.233002 851.744263 812.973962 851.744263z m0 0M218.526601-61.366889V385.4375c0 11.75143 4.750578 23.127815 13.001583 31.37882L611.824476 796.987597c17.377115 17.377115 45.505539 17.377115 62.75764 0L1121.386505 350.183209c17.2521-17.377115 17.2521-45.380524 0-62.75764L740.965197-92.870724c-8.251004-8.251004-19.627389-13.001583-31.37882-13.001582H262.907003c-24.502983 0.125015-44.380402 20.002435-44.380402 44.505417z m0 0M709.711392-128H262.781988c-36.754474 0-66.758126 29.878637-66.758126 66.758126V385.4375c0 17.752161 6.875837 34.629215 19.627389 47.130737L595.947544 812.739515c25.253074 25.253074 69.133416 25.253074 94.261474 0l446.804389-446.679374c26.003165-26.003165 26.003165-68.258309 0-94.261474L756.842129-108.372611c-12.501522-12.626537-29.503591-19.627389-47.130737-19.627389zM643.078281 787.736471c-5.875715 0-11.5014-2.250274-15.751917-6.500791l-380.046263-380.296293c-4.250517-4.250517-6.500791-9.751187-6.500791-15.751917v-446.679374c0-12.251491 9.876202-22.252709 22.252708-22.252709h446.804389c5.7507 0 11.5014 2.375289 15.751918 6.500791l380.296293 380.296293c8.62605 8.62605 8.62605 22.75277 0 31.37882L658.830198 781.23568c-4.250517 4.250517-9.751187 6.500791-15.751917 6.500791z m0 0M218.526601-105.747291V234.044071l339.791362-339.791362H218.526601z m28.253439 537.815467L756.342068-77.368837l-28.253439-28.253439-509.562028 509.437013 28.253439 28.253439z m0 0M798.847242 672.722471l28.25344-28.253439-424.676696-424.676696-28.253439 28.253439L798.847242 672.722471zM968.742924 502.951805l28.253439-28.378455-424.676695-424.676695-28.25344 28.378455L968.742924 502.951805z m0 0"  horiz-adv-x="1784" />

    
    <glyph glyph-name="shoucang1" unicode="&#58931;" d="M707.584 802.816c-77.312 0-148.992-38.912-196.608-102.912-47.104 64-119.296 102.912-196.608 102.912-139.264 0-252.416-123.904-252.416-275.968 0-90.624 40.448-154.624 73.216-205.824 94.72-148.992 333.312-333.824 343.552-341.504 9.728-7.68 20.992-11.264 32.256-11.264s22.528 3.584 32.256 11.264c10.24 7.68 248.32 193.024 343.552 341.504 32.768 51.2 73.216 115.2 73.216 205.824 0 152.064-113.152 275.968-252.416 275.968z"  horiz-adv-x="1024" />

    
    <glyph glyph-name="wodexiaoxi4" unicode="&#58900;" d="M512.822303 896C229.593212 896 0 691.075879 0 438.24097c0-148.51103 72.207515-280.498424 194.963394-364.140606 0.729212-0.496485-12.644848-202.100364-12.644849-202.100364l206.165334 120.86303c37.810424-7.943758 80.492606-12.396606 121.002666-12.396606C792.715636-19.533576 1024 185.390545 1024 438.24097 1024 691.075879 796.066909 896 512.822303 896zM263.292121 371.944727c-35.343515 0-64 28.780606-64 64.279273a64.124121 64.124121 0 0 0 64 64.263758 64.124121 64.124121 0 0 0 64-64.263758c0-35.498667-28.64097-64.279273-64-64.279273z m248.707879 0c-35.35903 0-64 28.780606-64 64.279273A64.124121 64.124121 0 0 0 512 500.487758c35.343515 0 64-28.780606 64-64.263758 0-35.498667-28.656485-64.279273-64-64.279273z m248.692364 0c-35.343515 0-64 28.780606-64 64.279273a64.124121 64.124121 0 0 0 64 64.263758c35.343515 0 64-28.780606 64-64.263758 0-35.498667-28.64097-64.279273-64-64.279273z m0 0"  horiz-adv-x="1024" />

    
    <glyph glyph-name="yijian" unicode="&#59051;" d="M1006.226853 728.589861L856.692258 878.226853c-24.848479 24.814346-66.35363 23.449045-92.840469-2.867133l-71.746569-71.814833 239.269004-239.371402 71.883099 71.746569c26.452707 26.520972 27.783876 68.026123 3.037795 92.738072z m-111.272034-200.904046l-239.269004 239.269004L129.020947 240.460613l239.405534-239.371401L894.954819 527.685815zM335.044871-32.292398l-239.269004 239.337269L0-128l335.044871 95.707602z"  horiz-adv-x="1024" />

    
    <glyph glyph-name="daifukuan1" unicode="&#59279;" d="M628.308651 375.209984c14.162603 0 25.741995 11.545259 25.741994 25.741995s-11.543893 25.740629-25.741994 25.740629h-134.519467l118.788096 175.443968a25.523541 25.523541 0 0 1 3.966293 19.316736c-1.282048 6.742016-5.151403 12.597931-10.840746 16.46592a25.597269 25.597269 0 0 1-14.422016 4.445525c-8.566101 0-16.564224-4.220245-21.325142-11.319978l-124.672682-184.142507-124.634454 184.142507a25.821184 25.821184 0 0 1-21.36064 11.319978c-5.147307 0-10.138965-1.537365-14.423381-4.445525-11.767808-7.962624-14.865749-23.979349-6.908587-35.748523l118.759424-175.446698H245.282133c-14.196736 0-25.776128-11.545259-25.776128-25.737899 0-14.198101 11.543893-25.741995 25.776128-25.741995h172.886699V293.0688H245.282133c-14.196736 0-25.776128-11.543893-25.776128-25.770667 0-14.199467 11.543893-25.741995 25.776128-25.741994h172.920832v-157.317803c0-14.196736 11.50976-25.773397 25.737899-25.773397 14.232235 0 25.770667 11.543893 25.770667 25.773397V241.557504h158.631253c14.163968 0 25.737899 11.541163 25.737899 25.741995 0 14.194005-11.538432 25.770667-25.737899 25.770666H469.711531v82.176683h158.598485v-0.036864z m0 0M811.910485 309.471915c-116.516181 0-211.260757-94.90432-211.260757-211.543382 0-116.648619 94.774613-211.548843 211.260757-211.548842 116.484779 0 211.289429 94.901589 211.28943 211.548842 0 116.639061-94.774613 211.543381-211.28943 211.543382m158.244864-211.543382c0-88.253781-71.656789-160.037547-159.782229-160.037546-88.091307 0-159.776768 71.783765-159.776768 160.037546 0 88.245589 71.686827 160.066219 159.776768 160.066219 88.12544 0 159.782229-71.821995 159.782229-160.066219M561.739093-71.543467H158.437376c-58.963285 0-106.923349 48.029696-106.923349 107.083094V733.300053c0 59.060224 47.961429 107.084459 106.923349 107.084459h579.355989c58.963285 0 106.923349-48.024235 106.92335-107.084459v-344.018944c0-14.196736 11.542528-25.740629 25.770666-25.740629 14.232235 0 25.770667 11.543893 25.770667 25.740629V733.300053c0 87.4496-71.077888 158.595755-158.436011 158.595755H158.437376C71.081984 891.897173 0 820.751019 0 733.300053v-697.761792c0-87.450965 71.081984-158.591659 158.436011-158.591658H561.739093c14.162603 0 25.736533 11.541163 25.736534 25.739264 0 14.228139-11.573931 25.770667-25.736534 25.770666M888.744619 87.247531h-57.171968v104.364714c0 14.19264-11.539797 25.739264-25.772032 25.739264-14.162603 0-25.736533-11.546624-25.736534-25.739264v-155.880106h108.650496c14.163968 0 25.736533 11.546624 25.736534 25.739264 0.035499 14.198101-11.508395 25.776128-25.706496 25.776128"  horiz-adv-x="1024" />

    
    <glyph glyph-name="shangpinguanli" unicode="&#58915;" d="M976.53 642.945H724.937a68.124 68.124 0 0 1 1.689 1.624c56.867 56.817 56.683 148.717-0.436 205.3-57.1 56.566-149.487 56.382-206.371-0.418-33.473-33.453-42.677-113.963-44.588-174.522 0.318-11.622 0.376-22.444 0.295-31.983h-0.711a878.92 878.92 0 0 0 0.416 31.983c-1.678 61.055-10.582 144.092-44.586 178.237-56.717 56.95-148.87 57.134-205.82 0.418-56.951-56.717-57.151-148.886-0.435-205.837a72.626 72.626 0 0 1 5.301-4.802H0v-154.188h976.53V642.945z m-526.505 0H270.388c-12.093 4.872-22.43 10.91-29.92 18.387-47.398 47.348-47.23 123.94 0.35 171.087 47.6 47.147 124.594 46.98 171.992-0.351 37.435-37.408 38.442-145.416 37.215-189.123z m237.79 0H500.32c-1.08 45.432 0.738 149.03 37.4 185.459 47.515 47.213 124.71 47.381 172.426 0.351 47.713-47.012 47.881-123.404 0.368-170.635-5.954-5.916-13.702-10.93-22.7-15.175z m64.259-672.217l54.892 54.893-70.286 0.569v85.66l70.286 11.662-54.892 54.893 69.23 69.231 52.435-50.125v68.528h51.396V454.492H51.396V-128h822.342v85.661l-52.435-56.165-69.23 69.232z m344.382 79.35v48.955h-51.415c-3.172 15.62-9.333 30.15-17.834 42.993l36.389 36.377-34.616 34.616-36.365-36.378c-12.844 8.51-27.376 14.678-43.004 17.85v51.387h-48.953v-51.388c-15.62-3.173-30.148-9.338-42.986-17.848l-36.366 36.377-34.616-34.616 36.385-36.385c-8.498-12.841-14.657-27.367-17.829-42.985h-51.433v-48.954h51.434c3.172-15.61 9.33-30.132 17.826-42.97l-36.383-36.382 34.616-34.616 36.372 36.371c12.838-8.506 27.361-14.67 42.98-17.843v-51.405h48.953v51.404c15.624 3.171 30.155 9.336 42.997 17.844l36.372-36.372 34.616 34.616-36.388 36.375c8.5 12.839 14.659 27.362 17.832 42.977h51.416z m-171.321-32.873c-31.671 0-57.353 25.681-57.353 57.353 0 31.686 25.682 57.37 57.353 57.37 31.687 0 57.368-25.684 57.368-57.37 0-31.672-25.68-57.353-57.368-57.353z"  horiz-adv-x="1097" />

    
    <glyph glyph-name="wodehuodong1" unicode="&#58996;" d="M325.3 347.8h-73.6l22.9 54.3c-85.7 27.2-148.1 111.1-148.1 210.3 0 121.4 93.2 219.7 208.3 219.7 86.4 0 160.5-55.5 192-134.5-49-44.9-79.8-110.7-79.8-183.7 0-27 4.2-53.2 12.2-77.7-18.3-14.5-39.2-25.8-61.8-33.4l23.2-55h-40.7c-5.7-3-11.1-6.4-16.2-10.3-18.3-14.3-29.1-32.9-29.1-57.3 0-21.6 6.2-31.4 27.4-50.3l2.5-2.2c29-25.9 40.8-45.1 40.8-81.9 0-36.6-14.5-54.3-38.4-86.8-7.8-10.6-16.5-20.7-25.9-30.2-3.9-4-8-7.8-12.3-11.4-7.3-6-18.4-5.4-24.8 1.4-6.4 6.8-5.8 17.1 1.5 23.1 1.8 1.5 5.3 4.6 9.8 9.2 7.7 7.8 15.5 16.6 22.7 26.5 20.3 27.5 32.3 39.1 32.3 68.3 0 26.2-7.2 38-29.9 58.3l-2.5 2.2c-27.5 24.5-38.3 41.5-38.3 74 0.1 26.7 9.5 49.3 25.8 67.4z m10.9 401.1c9.6 0 17.4 7.3 17.4 16.4 0.1 9-7.7 16.3-17.4 16.4-90.3 0-162.7-76.4-162.7-169.7 0-9 7.8-16.4 17.4-16.4 9.6 0 17.4 7.3 17.4 16.4-0.1 75.9 57.6 136.9 127.9 136.9z m0 0M663.9 243.1h-67.1l22.8 54.2c-85 27.2-147 111-147 210.2 0 121.3 92.5 219.6 206.6 219.6s206.6-98.3 206.6-219.6c0-98.3-60.8-181.5-144.6-209.5l23.1-55h-51.2c-1.9-1.3-3.7-2.6-5.5-4-18.4-14.3-29.1-32.9-29.1-57.2 0-21.6 6.2-31.4 27.4-50.4l2.5-2.2c29-25.9 40.8-27.6 40.8-64.4 0-36.6-14.5-50.8-38.4-83.3-7.8-10.6-16.5-20.7-25.9-30.2-3.9-4-8-7.8-12.3-11.4-7.3-6-18.4-5.4-24.8 1.4-6.4 6.8-5.8 17.1 1.5 23.1 1.8 1.5 5.3 4.6 9.8 9.2 7.7 7.8 15.5 16.6 22.7 26.5 20.3 27.5 32.3 35.6 32.3 64.8 0 26.2-7.2 20.5-29.9 40.8l-2.5 2.2c-27.5 24.5-38.3 41.5-38.3 74 0 23.8 7.5 44.2 20.5 61.2z m16.7 400.8c4.6 0 9 1.8 12.3 4.9 3.2 3.1 5 7.2 5 11.5s-1.7 8.4-5 11.5c-3.2 3.1-7.6 4.8-12.3 4.9-89.6 0-161.4-76.3-161.4-169.6 0-9 7.7-16.4 17.2-16.4 4.6 0 9 1.8 12.3 4.9 3.2 3.1 5 7.2 5 11.5-0.1 75.9 57.2 136.8 126.9 136.8z m0 0"  horiz-adv-x="1024" />

    
    <glyph glyph-name="wode" unicode="&#58901;" d="M512 360.727273c141.963636 0 256 114.036364 256 256S730.763636 896 512 896c-214.109091 0-256-137.309091-256-279.272727s114.036364-256 256-256z m232.727273-23.272728H279.272727C151.272727 337.454545 46.545455 232.727273 46.545455 104.727273s104.727273-232.727273 232.727272-232.727273h465.454546c128 0 232.727273 104.727273 232.727272 232.727273s-104.727273 232.727273-232.727272 232.727272z"  horiz-adv-x="1024" />

    
    <glyph glyph-name="shangpinguanli1" unicode="&#59025;" d="M876.430222 604.387556H662.300444c0.455111 0.455111 1.024 0.910222 1.479112 1.365333C712.135111 654.108444 712.021333 732.273778 663.438222 780.401778 614.855111 828.529778 536.234667 828.416 487.765333 780.060444c-28.444444-28.444444-36.295111-96.938667-37.888-148.48 0.227556-9.898667 0.341333-19.114667 0.227556-27.192888h-0.568889c0 8.192 0 17.408 0.341333 27.192888-1.479111 51.996444-8.988444 122.652444-37.888 151.665778-48.241778 48.469333-126.634667 48.583111-175.104 0.341334-48.469333-48.241778-48.583111-126.634667-0.341333-175.104 1.365333-1.365333 2.958222-2.730667 4.551111-4.096h-195.470222v-131.185778h830.919111V604.387556z m-448.056889 0h-152.803555c-10.24 4.096-19.114667 9.329778-25.486222 15.701333-40.277333 40.277333-40.163556 105.472 0.341333 145.521778 40.504889 40.163556 106.040889 39.936 146.318222-0.341334 31.857778-31.857778 32.768-123.790222 31.630222-160.881777z m202.410667 0h-159.516444c-0.910222 38.684444 0.682667 126.862222 31.857777 157.809777 40.391111 40.163556 106.154667 40.277333 146.773334 0.341334 40.504889-40.049778 40.618667-105.130667 0.113777-145.294223-5.006222-5.006222-11.605333-9.329778-19.228444-12.856888z m54.613333-572.074667l46.762667 46.762667-59.847111 0.455111v72.931555l59.847111 9.898667-46.762667 46.762667 58.936889 58.936888 44.600889-42.666666v58.368H832.739556V444.074667h-743.424v-495.616h699.733333v72.931555l-44.600889-47.786666-59.050667 58.709333z m293.091556 67.584v41.642667h-43.804445c-2.730667 13.312-7.964444 25.6-15.132444 36.636444l30.947556 30.947556-29.468445 29.468444-30.947555-30.947556c-10.922667 7.281778-23.324444 12.515556-36.636445 15.132445v43.690667h-41.642667v-43.690667c-13.312-2.730667-25.6-7.964444-36.522666-15.132445l-30.947556 30.947556-29.468444-29.468444 30.947555-30.947556c-7.281778-10.922667-12.515556-23.324444-15.132444-36.522667H686.876444v-41.642666h43.804445c2.730667-13.312 7.964444-25.6 15.132444-36.522667l-30.947555-30.947556 29.468444-29.468444 30.947556 30.947556c10.922667-7.281778 23.324444-12.515556 36.522666-15.132445v-43.690667h41.642667v43.690667c13.312 2.730667 25.713778 7.964444 36.636445 15.132445l30.947555-30.947556 29.468445 29.468444-30.947556 30.947556c7.281778 10.922667 12.515556 23.324444 15.132444 36.522667l43.804445-0.113778zM832.739556 71.907556c-26.965333 0-48.810667 21.845333-48.810667 48.810666s21.845333 48.810667 48.810667 48.810667 48.810667-21.845333 48.810666-48.810667-21.959111-48.810667-48.810666-48.810666z"  horiz-adv-x="1024" />

    
    <glyph glyph-name="shenfen" unicode="&#58890;" d="M1087.015385-128c-118.153846 0-212.676923 102.4-212.676923 224.492308 0 126.030769 94.523077 224.492308 212.676923 224.492307s212.676923-102.4 212.676923-224.492307-94.523077-224.492308-212.676923-224.492308z m-35.446154 181.169231l-35.446154 39.384615c-7.876923 7.876923-15.753846 11.815385-23.630769 11.815385-7.876923 0-15.753846-3.938462-23.63077-11.815385-11.815385-11.815385-11.815385-35.446154 0-47.261538l59.076924-63.015385c7.876923-7.876923 15.753846-11.815385 23.630769-11.815385 7.876923 0 15.753846 3.938462 23.630769 11.815385l149.661538 161.476923c11.815385 11.815385 11.815385 35.446154 0 47.261539-7.876923 7.876923-15.753846 11.815385-23.630769 11.815384s-15.753846-3.938462-23.630769-11.815384l-126.030769-137.846154zM1299.692308 277.661538C1248.492308 344.615385 1173.661538 384 1087.015385 384c-149.661538 0-271.753846-129.969231-271.753847-287.507692 0-86.646154 35.446154-169.353846 102.4-224.492308H122.092308C55.138462-128 0-68.923077 0 1.969231V766.030769C0 836.923077 55.138462 896 122.092308 896H1181.538462c63.015385 0 118.153846-59.076923 118.153846-129.969231v-488.369231zM693.169231 695.138462c-15.753846 0-31.507692-15.753846-31.507693-31.507693s11.815385-31.507692 31.507693-31.507692h303.261538c15.753846 0 31.507692 15.753846 31.507693 31.507692s-11.815385 31.507692-31.507693 31.507693h-303.261538z m0-173.292308c-15.753846 0-31.507692-15.753846-31.507693-31.507692s11.815385-31.507692 31.507693-31.507693h303.261538c15.753846 0 31.507692 15.753846 31.507693 31.507693s-11.815385 31.507692-31.507693 31.507692h-303.261538z m0-173.292308c-15.753846 0-31.507692-15.753846-31.507693-31.507692s11.815385-31.507692 31.507693-31.507692h59.076923c15.753846 0 31.507692 15.753846 31.507692 31.507692s-11.815385 31.507692-31.507692 31.507692h-59.076923zM358.4 734.523077c-78.769231 0-145.723077-66.953846-145.723077-149.661539 0-82.707692 63.015385-149.661538 145.723077-149.661538 78.769231 0 145.723077 66.953846 145.723077 149.661538s-66.953846 149.661538-145.723077 149.661539z m240.246154-531.692308c0 106.338462-82.707692 189.046154-181.169231 189.046154H307.2c-98.461538 0-181.169231-86.646154-181.169231-189.046154v-11.815384c0-55.138462 78.769231-55.138462 181.169231-55.138462h106.338462c98.461538 0 181.169231 0 181.16923 55.138462v11.815384z"  horiz-adv-x="1299" />

    
    <glyph glyph-name="common" unicode="&#58886;" d="M243.213314 409.573904h243.213048v243.213048c0 134.132518-109.08053 243.213048-243.213048 243.213048-134.132518 0-243.213048-109.08053-243.213048-243.213048s109.08053-243.213048 243.213048-243.213048z m780.786952 243.213048c0 134.132518-109.08053 243.213048-243.213048 243.213048-134.132518 0-243.213048-109.08053-243.213048-243.213048v-243.213048h243.213048c134.132518 0 243.213048 109.08053 243.213048 243.213048z m-243.213048-294.360856h-243.213048v-243.213048c0-134.132518 109.08053-243.213048 243.213048-243.213048 134.132518 0 243.213048 109.08053 243.213048 243.213048 0 134.132518-109.08053 243.213048-243.213048 243.213048z m-769.826707-243.213048c0-134.132518 109.08053-243.213048 243.213048-243.213048 134.132518 0 243.213048 109.08053 243.213048 243.213048V358.42609600000003H254.173559c-134.654434 0-243.213048-109.08053-243.213048-243.213048z"  horiz-adv-x="1024" />

    
    <glyph glyph-name="wodexiaoxi5" unicode="&#58894;" d="M515.937619-127.641261c-162.365566 0-324.731131 0.135-487.093696-0.242999-13.781963-0.028-20.582945 0.153-20.540945 18.310951 0.754998 326.419127 0.709998 652.837253 0.064 979.261379-0.032 15.999957 4.273989 17.818952 18.55095 17.797953 326.420127-0.450999 652.841253-0.508999 979.26138 0.138999 15.998957 0.029 17.819952-4.270989 17.801952-18.55095-0.450999-326.420127-0.510999-652.839253 0.138-979.26538 0.031-15.997957-4.267989-17.851952-18.551951-17.807952-163.210563 0.561998-326.419127 0.357999-489.62969 0.357999zM514.990622 29.650318c-106.525715 0-213.08743-1.675996-319.553145 0.791998-45.219879 1.045997-70.529811 12.395967-81.127783 58.065845-5.920984 25.521932 5.702985 57.065847 33.041912 76.875794 18.251951 13.225965 37.3329 25.482932 54.424854 40.063893 13.888963 11.852968 20.527945 28.020925 20.395946 47.353873-0.529999 76.932794-0.360999 153.867588-0.186 230.798382 0.267999 116.307689 82.25978 229.659385 192.483485 266.579287 16.295956 5.459985 27.804926 12.916965 26.503929 35.407905-2.138994 36.889901 19.884947 67.34282 50.859864 79.308788 26.10393 10.082973 63.813829-0.841998 84.322774-25.154932 14.425961-17.099954 18.438951-37.771899 15.926958-59.311842-1.735995-14.86496 3.82799-21.023944 17.812952-25.523931 102.042727-32.832912 163.305563-105.699717 194.017481-205.289451 8.698977-28.202925 10.551972-59.231842 11.19197-89.061762 1.532996-71.827808 0.913998-143.713615 0.152-215.565423-0.158-14.671961 3.291991-25.390932 14.79496-34.754907 23.598937-19.204949 47.143874-38.583897 69.407814-59.290841 36.315903-33.77291 28.789923-79.730787-7.27498-107.384713-16.245957-12.455967-37.3069-13.885963-57.626846-13.888963-106.521715-0.044-213.04643-0.019-319.568145-0.019zM54.166855 485.330099c7.30798 59.335841 25.859931 115.346691 53.706856 168.16255 19.328948 36.656902 46.987874 67.610819 73.801803 98.767736 12.771966 14.84096 29.458921 26.404929 44.85988 38.851896 11.751969 9.499975 23.401937 3.92399 31.865915-4.607988 8.449977-8.517977 13.558964-19.596948 4.681987-32.058914-7.35298-10.321972-18.57295-15.944957-27.449927-24.170936-59.68084-55.286852-98.397737-123.44767-120.084678-201.48346-4.245989-15.291959-8.608977-30.884917-9.853974-46.582876-1.568996-19.695947-5.839984-33.67391-29.82092-31.532915-23.094938 2.060994-22.23694 18.010952-21.706942 34.654907zM957.090439 450.793191c-19.979947-2.635993-28.309924 13.377964-29.519921 26.37993-7.37798 79.388788-40.562891 147.687605-87.881765 209.610439-17.279954 22.613939-39.787894 41.28589-60.296838 61.361836-11.909968 11.658969-14.598961 22.980939-2.954993 36.597902 12.408967 14.512961 21.792942 13.188965 37.270901 1.228996 82.32378-63.63083 127.685658-150.442597 158.269576-246.67234 6.232983-19.611948 9.290975-40.699891 10.465972-61.298836 0.855998-15.05796-4.574988-29.669921-25.352932-27.207927zM412.042897-16.00956c67.27582 0 128.697656-0.645998 190.089492 0.421999 16.644955 0.290999 18.57395-6.218983 14.342961-18.811949-18.124952-53.908856-47.776872-76.207796-97.729738-82.741779-41.759888-5.466985-94.074748 39.116895-98.828736 81.700781-0.721998 6.463983 1.767995 13.578964-7.873979 19.430948zM515.64462 85.458169c-108.22871 0.005-216.461421 0.01-324.688131 0-9.034976 0-19.995946-2.799993-24.308935 7.837979-4.300988 10.608972 2.212994 18.79995 10.283973 25.94593 22.167941 19.630947 47.300873 35.635905 67.889818 57.269847 18.191951 19.109949 28.555924 39.972893 28.218924 67.33382-0.972997 78.61879-2.451993 157.339579 0.374999 235.876369 1.980995 55.083853 20.010946 105.719717 57.322847 148.971601 36.197903 41.958888 79.076788 71.222809 133.615642 82.21378 73.417804 14.79096 140.158625 2.461993 200.386464-45.101879 42.665886-33.69291 72.172807-74.428801 85.94377-126.99666 4.283989-16.365956 9.161975-32.415913 9.141976-49.548868-0.089-71.873808 2.910992-143.901615-0.939998-215.565423-3.266991-60.747837 22.898939-101.814728 71.20281-131.960647 9.966973-6.223983 15.221959-17.147954 26.773928-21.157943 10.145973-3.520991 15.845958-14.238962 13.060965-22.61394-2.917992-8.773977-12.414967-13.045965-24.516934-12.960965-109.914706 0.764998-219.839412 0.445999-329.762118 0.456999zM515.998619 796.079267m-30.044919 0a30.04492 30.04492 0 1 1 60.089839 0 30.04492 30.04492 0 1 1-60.089839 0Z"  horiz-adv-x="1024" />

    
    </font>
</defs>
</svg>
